<?xml version="1.0" encoding="UTF-8"?>
<svg version="1.1" xmlns="http://www.w3.org/2000/svg" width="289" height="289">
<path d="M0 0 C1.01578125 0.5775 2.0315625 1.155 3.078125 1.75 C8.88227193 5.2519434 13.84327787 9.31545943 18.7890625 13.94140625 C20.5430576 15.57454303 22.30603345 17.08420485 24.1875 18.5625 C45.26880921 36.83296798 57.77825543 67.20169841 59.87109375 94.453125 C59.93490234 95.71382812 59.93490234 95.71382812 60 97 C60.07927734 98.47726563 60.07927734 98.47726563 60.16015625 99.984375 C60.52701223 113.57399645 58.75801963 127.89840115 54.55078125 140.84375 C53.92476508 143.29453672 53.90685778 145.48072461 54 148 C53.34 148 52.68 148 52 148 C52 149.98 52 151.96 52 154 C51.34 154 50.68 154 50 154 C50 155.32 50 156.64 50 158 C49.34 158 48.68 158 48 158 C48 159.32 48 160.64 48 162 C47.34 162 46.68 162 46 162 C46 163.32 46 164.64 46 166 C45.34 166 44.68 166 44 166 C44 167.32 44 168.64 44 170 C43.34 170 42.68 170 42 170 C42 170.66 42 171.32 42 172 C41.34 172 40.68 172 40 172 C40 173.32 40 174.64 40 176 C39.34 176 38.68 176 38 176 C38 176.66 38 177.32 38 178 C37.34 178 36.68 178 36 178 C36 178.66 36 179.32 36 180 C35.34 180 34.68 180 34 180 C34 181.32 34 182.64 34 184 C33.34 184 32.68 184 32 184 C32 184.66 32 185.32 32 186 C31.34 186 30.68 186 30 186 C30 186.66 30 187.32 30 188 C29.34 188 28.68 188 28 188 C28 188.66 28 189.32 28 190 C27.34 190 26.68 190 26 190 C26 190.66 26 191.32 26 192 C25.34 192 24.68 192 24 192 C24 192.66 24 193.32 24 194 C23.34 194 22.68 194 22 194 C22 194.66 22 195.32 22 196 C21.34 196 20.68 196 20 196 C20 196.66 20 197.32 20 198 C18.68 198 17.36 198 16 198 C16 198.66 16 199.32 16 200 C15.34 200 14.68 200 14 200 C14 200.66 14 201.32 14 202 C13.34 202 12.68 202 12 202 C12 202.66 12 203.32 12 204 C10.68 204 9.36 204 8 204 C8 204.66 8 205.32 8 206 C6.68 206 5.36 206 4 206 C4 206.66 4 207.32 4 208 C3.34 208 2.68 208 2 208 C2 208.66 2 209.32 2 210 C0.68 210 -0.64 210 -2 210 C-2 210.66 -2 211.32 -2 212 C-3.32 212 -4.64 212 -6 212 C-6 212.66 -6 213.32 -6 214 C-7.32 214 -8.64 214 -10 214 C-10 214.66 -10 215.32 -10 216 C-11.98 216 -13.96 216 -16 216 C-16 216.66 -16 217.32 -16 218 C-17.98 218 -19.96 218 -22 218 C-22 218.66 -22 219.32 -22 220 C-23.98 220 -25.96 220 -28 220 C-28 220.66 -28 221.32 -28 222 C-31.3 222 -34.6 222 -38 222 C-38 222.66 -38 223.32 -38 224 C-43.28359629 224.04965427 -48.56705496 224.08583957 -53.85083008 224.10986328 C-55.64610156 224.1198846 -57.44135688 224.13350533 -59.23657227 224.15087891 C-61.82572435 224.17529809 -64.41465951 224.18652198 -67.00390625 224.1953125 C-68.19651817 224.21079636 -68.19651817 224.21079636 -69.41322327 224.22659302 C-74.29015051 224.22756205 -78.32112116 223.53939316 -83 222 C-84.28132813 221.690625 -85.56265625 221.38125 -86.8828125 221.0625 C-112.27577465 214.83432075 -135.43708881 201.44315936 -152 181 C-152.68707031 180.17371094 -153.37414062 179.34742188 -154.08203125 178.49609375 C-169.85938 158.62934462 -178.74340283 134.32828674 -180 109 C-180.04125 108.24074219 -180.0825 107.48148437 -180.125 106.69921875 C-180.89520177 78.05734045 -170.72727595 50.26718809 -153 28 C-152.44570312 27.28714844 -151.89140625 26.57429688 -151.3203125 25.83984375 C-148.2478968 22.06160282 -144.76501312 18.88675309 -141.05078125 15.74609375 C-139.73066781 14.62211145 -138.43376017 13.4699802 -137.16796875 12.28515625 C-100.60713825 -21.65868849 -42.07717254 -24.14027499 0 0 Z " fill="#2050CD" transform="translate(205,41)"/>
<path d="M0 0 C1.14758789 0.00773437 1.14758789 0.00773437 2.31835938 0.015625 C8.83206205 0.10197069 15.16347731 0.70633144 21.6875 1.25 C21.6875 9.5 21.6875 17.75 21.6875 26.25 C13.0625 26.5625 13.0625 26.5625 10.38037109 26.63793945 C5.52825119 26.86236228 1.72914588 27.30675938 -2.3125 30.25 C-5.79329873 35.95732243 -5.84189216 41.62935058 -6 48.1875 C-6.103125 51.508125 -6.20625 54.82875 -6.3125 58.25 C2.2675 58.25 10.8475 58.25 19.6875 58.25 C19.13438732 67.37635927 18.19052161 76.23187034 16.6875 85.25 C9.0975 85.25 1.5075 85.25 -6.3125 85.25 C-6.3125 107.36 -6.3125 129.47 -6.3125 152.25 C-15.8825 152.25 -25.4525 152.25 -35.3125 152.25 C-35.3125 130.47 -35.3125 108.69 -35.3125 86.25 C-43.5625 86.25 -51.8125 86.25 -60.3125 86.25 C-60.3125 76.68 -60.3125 67.11 -60.3125 57.25 C-52.3925 57.25 -44.4725 57.25 -36.3125 57.25 C-36.35890625 55.45175781 -36.4053125 53.65351562 -36.453125 51.80078125 C-37.00952919 21.53493193 -37.00952919 21.53493193 -27.16015625 10.1171875 C-19.47730443 2.3531216 -10.79155033 -0.28658059 0 0 Z " fill="#FCFCFE" transform="translate(164.3125,68.75)"/>
<path d="M0 0 C0.99 1.98 0.99 1.98 2 4 C1.34 4 0.68 4 0 4 C0 5.98 0 7.96 0 10 C-0.66 10 -1.32 10 -2 10 C-2 11.32 -2 12.64 -2 14 C-2.66 14 -3.32 14 -4 14 C-4 15.32 -4 16.64 -4 18 C-4.66 18 -5.32 18 -6 18 C-6 19.32 -6 20.64 -6 22 C-6.66 22 -7.32 22 -8 22 C-8 23.32 -8 24.64 -8 26 C-8.66 26 -9.32 26 -10 26 C-10 26.66 -10 27.32 -10 28 C-10.66 28 -11.32 28 -12 28 C-12 29.32 -12 30.64 -12 32 C-12.66 32 -13.32 32 -14 32 C-14 32.66 -14 33.32 -14 34 C-14.66 34 -15.32 34 -16 34 C-16 34.66 -16 35.32 -16 36 C-16.66 36 -17.32 36 -18 36 C-18 37.32 -18 38.64 -18 40 C-18.66 40 -19.32 40 -20 40 C-20 40.66 -20 41.32 -20 42 C-20.66 42 -21.32 42 -22 42 C-22 42.66 -22 43.32 -22 44 C-22.66 44 -23.32 44 -24 44 C-24 44.66 -24 45.32 -24 46 C-24.66 46 -25.32 46 -26 46 C-26 46.66 -26 47.32 -26 48 C-26.66 48 -27.32 48 -28 48 C-28 48.66 -28 49.32 -28 50 C-28.66 50 -29.32 50 -30 50 C-30 50.66 -30 51.32 -30 52 C-30.66 52 -31.32 52 -32 52 C-32 52.66 -32 53.32 -32 54 C-33.32 54 -34.64 54 -36 54 C-36 54.66 -36 55.32 -36 56 C-36.66 56 -37.32 56 -38 56 C-38 56.66 -38 57.32 -38 58 C-38.66 58 -39.32 58 -40 58 C-40 58.66 -40 59.32 -40 60 C-41.32 60 -42.64 60 -44 60 C-44 60.66 -44 61.32 -44 62 C-45.32 62 -46.64 62 -48 62 C-48 62.66 -48 63.32 -48 64 C-48.66 64 -49.32 64 -50 64 C-50 64.66 -50 65.32 -50 66 C-51.32 66 -52.64 66 -54 66 C-54 66.66 -54 67.32 -54 68 C-55.32 68 -56.64 68 -58 68 C-58 68.66 -58 69.32 -58 70 C-59.32 70 -60.64 70 -62 70 C-62 70.66 -62 71.32 -62 72 C-63.98 72 -65.96 72 -68 72 C-68 72.66 -68 73.32 -68 74 C-69.98 74 -71.96 74 -74 74 C-74 74.66 -74 75.32 -74 76 C-75.98 76 -77.96 76 -80 76 C-80 76.66 -80 77.32 -80 78 C-83.3 78 -86.6 78 -90 78 C-90 78.66 -90 79.32 -90 80 C-102.54 80 -115.08 80 -128 80 C-128.33 79.34 -128.66 78.68 -129 78 C-127.69518677 78.0314209 -127.69518677 78.0314209 -126.36401367 78.06347656 C-101.89638958 78.69370583 -101.89638958 78.69370583 -78 74 C-76.96649414 73.67854004 -76.96649414 73.67854004 -75.91210938 73.35058594 C-44.69851253 63.30197252 -20.83237175 42.16161189 -5.61376953 13.26757812 C-3.39313683 8.93363379 -1.5104879 4.6258692 0 0 Z " fill="#ACACCB" transform="translate(257,185)"/>
<path d="M0 0 C0.66 1.32 1.32 2.64 2 4 C1.34 4 0.68 4 0 4 C0 5.98 0 7.96 0 10 C-0.66 10 -1.32 10 -2 10 C-2 11.32 -2 12.64 -2 14 C-2.66 14 -3.32 14 -4 14 C-4 15.32 -4 16.64 -4 18 C-4.66 18 -5.32 18 -6 18 C-6 19.32 -6 20.64 -6 22 C-6.66 22 -7.32 22 -8 22 C-8 23.32 -8 24.64 -8 26 C-8.66 26 -9.32 26 -10 26 C-10 26.66 -10 27.32 -10 28 C-10.66 28 -11.32 28 -12 28 C-12 29.32 -12 30.64 -12 32 C-12.66 32 -13.32 32 -14 32 C-14 32.66 -14 33.32 -14 34 C-14.66 34 -15.32 34 -16 34 C-16 34.66 -16 35.32 -16 36 C-16.99 36 -17.98 36 -19 36 C-17.5960471 32.94695956 -15.84954717 30.21717222 -13.97851562 27.4309082 C-8.25273078 18.86980486 -3.26812699 9.80438096 0 0 Z " fill="#C5C5DA" transform="translate(257,185)"/>
<path d="M0 0 C0.66 0.33 1.32 0.66 2 1 C-4.6 7.6 -11.2 14.2 -18 21 C-18 16.37629779 -15.12313232 14.20878785 -12 11 C-9.9807018 9.14704246 -7.92344185 7.35370341 -5.8359375 5.578125 C-3.7854109 3.81554469 -1.87227771 1.95028928 0 0 Z " fill="#4391F3" transform="translate(70,51)"/>
<path d="M0 0 C0 0.66 0 1.32 0 2 C-1.98 2 -3.96 2 -6 2 C-6 2.66 -6 3.32 -6 4 C-9.96 4 -13.92 4 -18 4 C-18 3.67 -18 3.34 -18 3 C-15.75113762 2.49490792 -13.50086131 1.99610821 -11.25 1.5 C-9.37054688 1.08234375 -9.37054688 1.08234375 -7.453125 0.65625 C-4 0 -4 0 0 0 Z " fill="#AAAACB" transform="translate(183,259)"/>
<path d="M0 0 C0.66 1.32 1.32 2.64 2 4 C1.34 4 0.68 4 0 4 C0 5.98 0 7.96 0 10 C-0.66 10 -1.32 10 -2 10 C-2 11.32 -2 12.64 -2 14 C-2.66 14 -3.32 14 -4 14 C-3.36843005 8.94744036 -1.86540627 4.70406799 0 0 Z " fill="#D0D1E2" transform="translate(257,185)"/>
<path d="M0 0 C0.33 1.32 0.66 2.64 1 4 C0.34 4 -0.32 4 -1 4 C-1 4.66 -1 5.32 -1 6 C-1.66 6 -2.32 6 -3 6 C-3 6.66 -3 7.32 -3 8 C-3.99 8 -4.98 8 -6 8 C-4.55746343 4.63408134 -2.66735273 2.48952921 0 0 Z " fill="#BABAD3" transform="translate(244,213)"/>
</svg>
