<?xml version="1.0" encoding="UTF-8"?>
<svg version="1.1" xmlns="http://www.w3.org/2000/svg" width="289" height="289">
<path d="M0 0 C0.68400879 0.21962402 1.36801758 0.43924805 2.07275391 0.66552734 C20.56040051 6.73078034 35.8690398 16.69883712 50 30 C50.59167969 30.52722656 51.18335938 31.05445313 51.79296875 31.59765625 C71.17020977 49.59409625 83.71135163 78.77748249 85.1640625 104.95654297 C85.76821827 121.59348258 84.77145819 137.10161175 79.5625 152.97265625 C78.810227 155.68397352 78.77955186 158.20765684 79 161 C78.34 161 77.68 161 77 161 C77 162.32 77 163.64 77 165 C76.34 165 75.68 165 75 165 C75 166.98 75 168.96 75 171 C74.34 171 73.68 171 73 171 C73 171.66 73 172.32 73 173 C72.34 173 71.68 173 71 173 C71 174.32 71 175.64 71 177 C70.34 177 69.68 177 69 177 C69 178.32 69 179.64 69 181 C68.34 181 67.68 181 67 181 C67 182.32 67 183.64 67 185 C66.34 185 65.68 185 65 185 C65 185.66 65 186.32 65 187 C64.34 187 63.68 187 63 187 C63 187.66 63 188.32 63 189 C62.34 189 61.68 189 61 189 C61 190.32 61 191.64 61 193 C60.34 193 59.68 193 59 193 C59 193.66 59 194.32 59 195 C58.34 195 57.68 195 57 195 C57 195.66 57 196.32 57 197 C56.34 197 55.68 197 55 197 C55 197.66 55 198.32 55 199 C54.34 199 53.68 199 53 199 C53 199.66 53 200.32 53 201 C52.34 201 51.68 201 51 201 C51 201.66 51 202.32 51 203 C50.34 203 49.68 203 49 203 C49 203.66 49 204.32 49 205 C48.34 205 47.68 205 47 205 C47 205.66 47 206.32 47 207 C46.34 207 45.68 207 45 207 C45 207.66 45 208.32 45 209 C44.34 209 43.68 209 43 209 C43 209.66 43 210.32 43 211 C41.68 211 40.36 211 39 211 C39 211.66 39 212.32 39 213 C38.34 213 37.68 213 37 213 C37 213.66 37 214.32 37 215 C35.68 215 34.36 215 33 215 C33 215.66 33 216.32 33 217 C32.34 217 31.68 217 31 217 C31 217.66 31 218.32 31 219 C29.68 219 28.36 219 27 219 C27 219.66 27 220.32 27 221 C25.68 221 24.36 221 23 221 C23 221.66 23 222.32 23 223 C21.68 223 20.36 223 19 223 C19 223.66 19 224.32 19 225 C17.68 225 16.36 225 15 225 C15 225.66 15 226.32 15 227 C13.02 227 11.04 227 9 227 C9 227.66 9 228.32 9 229 C7.68 229 6.36 229 5 229 C5 229.66 5 230.32 5 231 C2.36 231 -0.28 231 -3 231 C-3 231.66 -3 232.32 -3 233 C-6.3 233 -9.6 233 -13 233 C-13 233.66 -13 234.32 -13 235 C-25.87 235 -38.74 235 -52 235 C-52 234.34 -52 233.68 -52 233 C-52.90552612 232.94501343 -52.90552612 232.94501343 -53.8293457 232.88891602 C-60.30288249 232.38433067 -66.05696929 231.04154734 -72.1875 228.9375 C-73.10168701 228.62514404 -74.01587402 228.31278809 -74.95776367 227.9909668 C-105.98606563 217.0351604 -129.48624582 193.95231236 -143.69140625 164.4921875 C-156.728746 135.28070444 -157.82919711 102.46659371 -146.79296875 72.421875 C-134.77226721 41.74976345 -110.91556857 17.4161216 -80.890625 4.11328125 C-76.99648103 2.50093828 -73.03818049 1.19956568 -69 0 C-68.33226563 -0.20737793 -67.66453125 -0.41475586 -66.9765625 -0.62841797 C-46.42386902 -6.76029468 -20.34586499 -6.73444568 0 0 Z " fill="#D26B95" transform="translate(179,29)"/>
<path d="M0 0 C1.28218414 -0.0159874 2.56436829 -0.03197479 3.88540649 -0.04844666 C5.27434894 -0.05482672 6.66329622 -0.0602184 8.05224609 -0.06469727 C9.49466029 -0.07367908 10.93707362 -0.08280117 12.37948608 -0.09205627 C15.40047456 -0.10851036 18.42135276 -0.11623912 21.44238281 -0.11914062 C25.28203741 -0.12450384 29.12062966 -0.16211185 32.95998573 -0.20788479 C35.94061903 -0.23788521 38.92100434 -0.24486919 41.90177536 -0.24586678 C43.31536063 -0.25002804 44.72894952 -0.2622944 46.14238358 -0.28338432 C58.3433207 -0.45086722 68.70560651 1.74994246 77.70849609 10.43530273 C87.26714119 20.70120184 90.08121269 30.78514358 89.91162109 44.71655273 C89.91070465 45.96464218 89.90978821 47.21273163 89.90884399 48.49864197 C89.9013093 51.78789566 89.87547368 55.07634995 89.84191895 58.36541748 C89.81495557 61.6927584 89.82136824 65.01996569 89.82177734 68.34741211 C89.81194565 70.90796693 89.80028843 73.46851552 89.78662109 76.02905273 C89.78439545 77.21161148 89.7821698 78.39417023 89.77987671 79.61256409 C89.62930216 92.88778462 87.5980904 104.15726449 78.26318359 114.11889648 C70.61117191 121.33657028 62.58527736 124.38979317 52.16674805 124.48339844 C50.29373772 124.50265129 50.29373772 124.50265129 48.38288879 124.52229309 C47.02658489 124.53046337 45.67027645 124.53790655 44.31396484 124.54467773 C43.28043916 124.55079103 43.28043916 124.55079103 42.22603416 124.55702782 C38.57704348 124.57783754 34.92808979 124.59215969 31.27905273 124.6015625 C27.5346414 124.61260079 23.79082857 124.64698463 20.046628 124.6867342 C17.14587904 124.71304074 14.24526957 124.72126677 11.34441185 124.72484398 C9.96546588 124.72967585 8.58652468 124.74119131 7.20769691 124.75988197 C-6.38101103 124.93259892 -15.53310122 121.76524701 -25.45947266 112.52905273 C-30.36496823 107.43608599 -32.60355179 102.04334493 -34.54931641 95.30639648 C-34.72597839 94.71420319 -34.90264038 94.12200989 -35.08465576 93.51187134 C-35.6554265 90.80275337 -35.69203346 88.27268072 -35.71044922 85.50317383 C-35.72005676 84.33450775 -35.72966431 83.16584167 -35.73956299 81.96176147 C-35.74381287 80.7013504 -35.74806274 79.44093933 -35.75244141 78.14233398 C-35.76099152 76.18875473 -35.76099152 76.18875473 -35.76971436 74.19570923 C-35.78020844 71.43686536 -35.78606055 68.67805046 -35.78955078 65.91918945 C-35.79501217 62.40913713 -35.81899567 58.89947728 -35.84752274 55.38954735 C-35.87080505 52.01548498 -35.87260982 48.64147239 -35.87744141 45.26733398 C-35.88978821 44.0190683 -35.90213501 42.77080261 -35.91485596 41.48471069 C-35.88377448 29.18531033 -33.32595335 19.27240053 -24.59228516 10.29467773 C-17.44633174 3.77724029 -9.76897283 0.09255849 0 0 Z " fill="#E74991" transform="translate(117.54931640625,81.693603515625)"/>
<path d="M0 0 C1.28218414 -0.0159874 2.56436829 -0.03197479 3.88540649 -0.04844666 C5.27434894 -0.05482672 6.66329622 -0.0602184 8.05224609 -0.06469727 C9.49466029 -0.07367908 10.93707362 -0.08280117 12.37948608 -0.09205627 C15.40047456 -0.10851036 18.42135276 -0.11623912 21.44238281 -0.11914062 C25.28203741 -0.12450384 29.12062966 -0.16211185 32.95998573 -0.20788479 C35.94061903 -0.23788521 38.92100434 -0.24486919 41.90177536 -0.24586678 C43.31536063 -0.25002804 44.72894952 -0.2622944 46.14238358 -0.28338432 C58.3433207 -0.45086722 68.70560651 1.74994246 77.70849609 10.43530273 C87.26714119 20.70120184 90.08121269 30.78514358 89.91162109 44.71655273 C89.91070465 45.96464218 89.90978821 47.21273163 89.90884399 48.49864197 C89.9013093 51.78789566 89.87547368 55.07634995 89.84191895 58.36541748 C89.81495557 61.6927584 89.82136824 65.01996569 89.82177734 68.34741211 C89.81194565 70.90796693 89.80028843 73.46851552 89.78662109 76.02905273 C89.78439545 77.21161148 89.7821698 78.39417023 89.77987671 79.61256409 C89.62930216 92.88778462 87.5980904 104.15726449 78.26318359 114.11889648 C70.61117191 121.33657028 62.58527736 124.38979317 52.16674805 124.48339844 C50.29373772 124.50265129 50.29373772 124.50265129 48.38288879 124.52229309 C47.02658489 124.53046337 45.67027645 124.53790655 44.31396484 124.54467773 C43.28043916 124.55079103 43.28043916 124.55079103 42.22603416 124.55702782 C38.57704348 124.57783754 34.92808979 124.59215969 31.27905273 124.6015625 C27.5346414 124.61260079 23.79082857 124.64698463 20.046628 124.6867342 C17.14587904 124.71304074 14.24526957 124.72126677 11.34441185 124.72484398 C9.96546588 124.72967585 8.58652468 124.74119131 7.20769691 124.75988197 C-6.38101103 124.93259892 -15.53310122 121.76524701 -25.45947266 112.52905273 C-30.36496823 107.43608599 -32.60355179 102.04334493 -34.54931641 95.30639648 C-34.72597839 94.71420319 -34.90264038 94.12200989 -35.08465576 93.51187134 C-35.6554265 90.80275337 -35.69203346 88.27268072 -35.71044922 85.50317383 C-35.72005676 84.33450775 -35.72966431 83.16584167 -35.73956299 81.96176147 C-35.74381287 80.7013504 -35.74806274 79.44093933 -35.75244141 78.14233398 C-35.76099152 76.18875473 -35.76099152 76.18875473 -35.76971436 74.19570923 C-35.78020844 71.43686536 -35.78606055 68.67805046 -35.78955078 65.91918945 C-35.79501217 62.40913713 -35.81899567 58.89947728 -35.84752274 55.38954735 C-35.87080505 52.01548498 -35.87260982 48.64147239 -35.87744141 45.26733398 C-35.88978821 44.0190683 -35.90213501 42.77080261 -35.91485596 41.48471069 C-35.88377448 29.18531033 -33.32595335 19.27240053 -24.59228516 10.29467773 C-17.44633174 3.77724029 -9.76897283 0.09255849 0 0 Z M-16.86181641 20.61889648 C-17.81507812 21.6959082 -17.81507812 21.6959082 -18.78759766 22.79467773 C-23.95569243 30.16293702 -23.99214658 36.55727236 -23.94775391 45.36108398 C-23.95062408 46.6172049 -23.95349426 47.87332581 -23.95645142 49.16751099 C-23.95848865 51.81877972 -23.95450568 54.46921266 -23.94042969 57.12036133 C-23.92337343 60.49486115 -23.93316703 63.86864307 -23.95114708 67.24311638 C-23.96468765 70.49079674 -23.95516344 73.73839419 -23.94775391 76.98608398 C-23.9538266 78.18635223 -23.95989929 79.38662048 -23.96615601 80.6232605 C-23.88272188 90.66316715 -22.44539226 98.15731069 -15.45166016 105.57983398 C-9.85474801 110.65957766 -4.27933527 112.41080278 3.16210938 112.48339844 C4.3107547 112.49623367 5.45940002 112.50906891 6.64285278 112.52229309 C7.88139008 112.52968002 9.11992737 112.53706696 10.39599609 112.54467773 C11.67618622 112.55274948 12.95637634 112.56082123 14.27536011 112.56913757 C16.98712021 112.5841411 19.69885438 112.5939886 22.41064453 112.6015625 C25.86028498 112.61258565 29.30927305 112.64694635 32.75868416 112.6867342 C36.07525989 112.71940374 39.39177205 112.72369689 42.70849609 112.73217773 C44.54808395 112.75843987 44.54808395 112.75843987 46.42483521 112.78523254 C55.72962694 112.76191739 63.39802656 111.40334453 70.38818359 104.93139648 C75.69312454 99.10220255 77.54502749 93.32584542 77.64355469 85.5949707 C77.66764908 83.87200272 77.66764908 83.87200272 77.69223022 82.11422729 C77.73689047 76.85829291 77.77818666 71.60250554 77.80078125 66.34643555 C77.81408111 63.5801457 77.84186481 60.81460045 77.8828125 58.04858398 C77.94200928 54.04846003 77.95948983 50.04912371 77.97412109 46.04858398 C78.00812515 44.20899612 78.00812515 44.20899612 78.04281616 42.33224487 C78.02065765 33.25469394 76.13864195 26.60059457 70.16943359 19.65014648 C69.43724609 19.04170898 68.70505859 18.43327148 67.95068359 17.80639648 C67.21849609 17.17733398 66.48630859 16.54827148 65.73193359 15.90014648 C61.31904095 12.81716669 57.56949479 12.05344494 52.22680664 12.01586914 C50.99169846 12.00310944 49.75659027 11.99034973 48.48405457 11.97720337 C47.14350543 11.97414516 45.80295418 11.9719177 44.46240234 11.97045898 C43.07623662 11.96402509 41.69007224 11.95729629 40.3039093 11.95028687 C37.40138606 11.93833205 34.49898166 11.9346041 31.59643555 11.93579102 C27.89437754 11.93599392 24.19308963 11.90871411 20.4912138 11.8742466 C17.62826606 11.85190232 14.76550132 11.84795578 11.90247536 11.84901047 C10.53863692 11.84666496 9.17479262 11.83790107 7.81104088 11.82234573 C-2.38162362 11.71698295 -9.87238588 12.4717963 -16.86181641 20.61889648 Z " fill="#FEFAFB" transform="translate(117.54931640625,81.693603515625)"/>
<path d="M0 0 C7.55403286 5.48410889 12.86269152 11.73832993 15 21 C16.06961557 31.24237939 13.40802993 39.89572686 7 48 C-0.07573461 54.75411031 -7.86924018 58.41165575 -17.765625 58.20703125 C-26.25926713 57.42003294 -33.04473172 54.09190923 -39 48 C-44.58589074 40.54815861 -48.14348078 32.4820945 -47 23 C-44.68115675 13.19992523 -40.28547102 5.79122888 -32 0 C-21.8052049 -5.83540461 -10.17403613 -5.94456776 0 0 Z " fill="#FEF8FB" transform="translate(161,117)"/>
<path d="M0 0 C4.39225831 2.60818638 7.5995028 5.80581651 9.6875 10.5 C10.8351024 17.06781684 10.30092565 23.09490787 6.890625 28.8828125 C3.8864075 32.92094901 0.35108626 34.88410827 -4.3125 36.5 C-10.92182076 37.43854331 -16.18119914 36.94921701 -21.65625 33 C-25.58418699 29.4426231 -27.98940775 25.35705862 -28.5859375 20.08203125 C-28.8375604 13.22046835 -28.06283046 8.62108795 -23.3125 3.5 C-16.71298595 -2.62172118 -8.24276972 -3.51460353 0 0 Z " fill="#F53B91" transform="translate(154.3125,126.5)"/>
<path d="M0 0 C0.33 0 0.66 0 1 0 C1.33 1.98 1.66 3.96 2 6 C1.34 6 0.68 6 0 6 C0 7.32 0 8.64 0 10 C-0.66 10 -1.32 10 -2 10 C-2 11.98 -2 13.96 -2 16 C-2.66 16 -3.32 16 -4 16 C-4 16.66 -4 17.32 -4 18 C-4.66 18 -5.32 18 -6 18 C-6 19.32 -6 20.64 -6 22 C-6.66 22 -7.32 22 -8 22 C-8 23.32 -8 24.64 -8 26 C-8.66 26 -9.32 26 -10 26 C-10 27.32 -10 28.64 -10 30 C-10.66 30 -11.32 30 -12 30 C-12 30.66 -12 31.32 -12 32 C-12.66 32 -13.32 32 -14 32 C-14 32.66 -14 33.32 -14 34 C-14.66 34 -15.32 34 -16 34 C-16 35.32 -16 36.64 -16 38 C-16.66 38 -17.32 38 -18 38 C-18 38.66 -18 39.32 -18 40 C-18.66 40 -19.32 40 -20 40 C-20 40.66 -20 41.32 -20 42 C-20.66 42 -21.32 42 -22 42 C-22 42.66 -22 43.32 -22 44 C-22.66 44 -23.32 44 -24 44 C-24 44.66 -24 45.32 -24 46 C-24.66 46 -25.32 46 -26 46 C-26 46.66 -26 47.32 -26 48 C-26.66 48 -27.32 48 -28 48 C-28 48.66 -28 49.32 -28 50 C-28.66 50 -29.32 50 -30 50 C-30 50.66 -30 51.32 -30 52 C-30.66 52 -31.32 52 -32 52 C-32 52.66 -32 53.32 -32 54 C-32.66 54 -33.32 54 -34 54 C-34 54.66 -34 55.32 -34 56 C-35.32 56 -36.64 56 -38 56 C-38 56.66 -38 57.32 -38 58 C-38.66 58 -39.32 58 -40 58 C-40 58.66 -40 59.32 -40 60 C-41.32 60 -42.64 60 -44 60 C-44 60.66 -44 61.32 -44 62 C-44.66 62 -45.32 62 -46 62 C-46 62.66 -46 63.32 -46 64 C-47.32 64 -48.64 64 -50 64 C-50 64.66 -50 65.32 -50 66 C-51.32 66 -52.64 66 -54 66 C-54 66.66 -54 67.32 -54 68 C-55.32 68 -56.64 68 -58 68 C-58 68.66 -58 69.32 -58 70 C-59.32 70 -60.64 70 -62 70 C-62 70.66 -62 71.32 -62 72 C-63.98 72 -65.96 72 -68 72 C-68 72.66 -68 73.32 -68 74 C-69.32 74 -70.64 74 -72 74 C-72 74.66 -72 75.32 -72 76 C-74.64 76 -77.28 76 -80 76 C-80 76.66 -80 77.32 -80 78 C-83.3 78 -86.6 78 -90 78 C-90 78.66 -90 79.32 -90 80 C-102.87 80 -115.74 80 -129 80 C-128.505 79.01 -128.505 79.01 -128 78 C-127.31188232 78.01571045 -126.62376465 78.0314209 -125.91479492 78.04760742 C-94.80690574 78.661017 -62.95294824 74.53637733 -38.49609375 53.1796875 C-37 52 -37 52 -35 52 C-35 51.34 -35 50.68 -35 50 C-33.56640625 48.625 -33.56640625 48.625 -31.5625 47 C-24.13339601 40.62846617 -18.12322961 33.48321263 -12.6875 25.375 C-12.27902832 24.76591797 -11.87055664 24.15683594 -11.44970703 23.52929688 C-7.73313656 17.84063743 -3.85683372 11.85466978 -3 5 C-2.34 5 -1.68 5 -1 5 C-0.67 3.35 -0.34 1.7 0 0 Z " fill="#9891CF" transform="translate(256,184)"/>
<path d="M0 0 C2.9375 2.0625 2.9375 2.0625 5 5 C5.06625411 8.8427383 4.81899419 10.99200716 2.375 14 C-1.11581787 15.46981805 -3.39148956 14.98413921 -7 14 C-9.5881216 11.74582958 -9.94242643 10.39479021 -10.4375 7 C-10 4 -10 4 -8.375 1.625 C-5.24988831 -0.51323431 -3.71837535 -0.6829669 0 0 Z " fill="#FEF6FA" transform="translate(180,104)"/>
<path d="M0 0 C0.33 0 0.66 0 1 0 C1.33 1.98 1.66 3.96 2 6 C1.34 6 0.68 6 0 6 C0 7.32 0 8.64 0 10 C-0.66 10 -1.32 10 -2 10 C-2 11.98 -2 13.96 -2 16 C-2.66 16 -3.32 16 -4 16 C-4 16.66 -4 17.32 -4 18 C-4.66 18 -5.32 18 -6 18 C-6 19.32 -6 20.64 -6 22 C-6.66 22 -7.32 22 -8 22 C-8 23.32 -8 24.64 -8 26 C-8.66 26 -9.32 26 -10 26 C-10 27.32 -10 28.64 -10 30 C-10.66 30 -11.32 30 -12 30 C-12 30.66 -12 31.32 -12 32 C-12.66 32 -13.32 32 -14 32 C-14 32.66 -14 33.32 -14 34 C-15.98 34.495 -15.98 34.495 -18 35 C-16.4637306 30.60709992 -14.126319 26.91029944 -11.5625 23.0625 C-5.89592371 14.63742343 -5.89592371 14.63742343 -3 5 C-2.34 5 -1.68 5 -1 5 C-0.67 3.35 -0.34 1.7 0 0 Z " fill="#B6B4DA" transform="translate(256,184)"/>
<path d="M0 0 C-1.32 0.33 -2.64 0.66 -4 1 C-4 1.66 -4 2.32 -4 3 C-6.64 3 -9.28 3 -12 3 C-12 3.66 -12 4.32 -12 5 C-15.3 5 -18.6 5 -22 5 C-22 5.66 -22 6.32 -22 7 C-34.87 7 -47.74 7 -61 7 C-60.67 6.34 -60.34 5.68 -60 5 C-59.31188232 5.01571045 -58.62376465 5.0314209 -57.91479492 5.04760742 C-42.09810495 5.35949323 -26.55791384 5.3780959 -11.2578125 0.90625 C-7.26138513 -0.20546601 -4.11678999 -0.14444877 0 0 Z " fill="#B5ACD7" transform="translate(188,257)"/>
<path d="M0 0 C0 1.32 0 2.64 0 4 C-0.66 4 -1.32 4 -2 4 C-2 4.66 -2 5.32 -2 6 C-2.66 6 -3.32 6 -4 6 C-4 6.66 -4 7.32 -4 8 C-4.66 8 -5.32 8 -6 8 C-6 8.66 -6 9.32 -6 10 C-6.66 10 -7.32 10 -8 10 C-8 10.66 -8 11.32 -8 12 C-8.66 12 -9.32 12 -10 12 C-10 12.66 -10 13.32 -10 14 C-10.66 14 -11.32 14 -12 14 C-12 14.66 -12 15.32 -12 16 C-12.66 16 -13.32 16 -14 16 C-14 16.66 -14 17.32 -14 18 C-14.66 18 -15.32 18 -16 18 C-16 18.66 -16 19.32 -16 20 C-16.66 20 -17.32 20 -18 20 C-18 20.66 -18 21.32 -18 22 C-19.32 21.67 -20.64 21.34 -22 21 C-19.85605469 16.5781128 -16.88446452 14.0638375 -13.1953125 10.98046875 C-10.06677994 8.1581093 -7.4357079 4.97158019 -4.76171875 1.72265625 C-3 0 -3 0 0 0 Z " fill="#AFAECE" transform="translate(240,218)"/>
<path d="M0 0 C0.66 0.33 1.32 0.66 2 1 C0.625 3.5 0.625 3.5 -1 6 C-1.66 6 -2.32 6 -3 6 C-3 6.66 -3 7.32 -3 8 C-4.32 8 -5.64 8 -7 8 C-7 8.66 -7 9.32 -7 10 C-7.66 10 -8.32 10 -9 10 C-9 10.66 -9 11.32 -9 12 C-10.32 12 -11.64 12 -13 12 C-13 12.66 -13 13.32 -13 14 C-13.99 13.67 -14.98 13.34 -16 13 C-11.3126338 7.82773385 -5.68271819 4.01074507 0 0 Z " fill="#9A97CD" transform="translate(219,236)"/>
<path d="M0 0 C0.33 0 0.66 0 1 0 C1.33 1.98 1.66 3.96 2 6 C1.34 6 0.68 6 0 6 C0 7.32 0 8.64 0 10 C-0.66 10 -1.32 10 -2 10 C-3.20628008 12.33214148 -4.1654738 14.49642139 -5 17 C-5.66 16.67 -6.32 16.34 -7 16 C-6.525625 15.113125 -6.05125 14.22625 -5.5625 13.3125 C-4.20262851 10.42957244 -3.45939614 8.12389377 -3 5 C-2.34 5 -1.68 5 -1 5 C-0.67 3.35 -0.34 1.7 0 0 Z " fill="#B3A9E6" transform="translate(256,184)"/>
<path d="M0 0 C0.33 1.32 0.66 2.64 1 4 C0.34 4 -0.32 4 -1 4 C-1 4.66 -1 5.32 -1 6 C-1.66 6 -2.32 6 -3 6 C-3 7.32 -3 8.64 -3 10 C-6 12.25 -6 12.25 -9 14 C-7.7580393 10.56072421 -6.44259716 7.74792181 -4 5 C-3.34 5 -2.68 5 -2 5 C-1.855625 4.360625 -1.71125 3.72125 -1.5625 3.0625 C-1 1 -1 1 0 0 Z " fill="#BEBAE1" transform="translate(253,196)"/>
<path d="M0 0 C0.66 0.66 1.32 1.32 2 2 C-1.96 5.96 -5.92 9.92 -10 14 C-10.66 13.67 -11.32 13.34 -12 13 C-11.38511719 12.39671875 -10.77023438 11.7934375 -10.13671875 11.171875 C-9.32847656 10.37265625 -8.52023438 9.5734375 -7.6875 8.75 C-6.88699219 7.96109375 -6.08648437 7.1721875 -5.26171875 6.359375 C-3.31256349 4.32605933 -1.62578594 2.29398922 0 0 Z " fill="#9993D9" transform="translate(237,218)"/>
<path d="M0 0 C0 0.99 0 1.98 0 3 C-0.66 3 -1.32 3 -2 3 C-2 3.66 -2 4.32 -2 5 C-3.32 5 -4.64 5 -6 5 C-6 5.66 -6 6.32 -6 7 C-6.99 6.67 -7.98 6.34 -9 6 C-3.15384615 0 -3.15384615 0 0 0 Z " fill="#A09EC8" transform="translate(212,243)"/>
</svg>
