<?xml version="1.0" encoding="UTF-8"?>
<svg version="1.1" xmlns="http://www.w3.org/2000/svg" width="289" height="289">
<path d="M0 0 C26.35923744 21.75919008 41.56599512 51.0188923 44.84960938 85.0234375 C46.16300379 100.165328 43.37147154 115.38200191 40.37646484 130.2109375 C39.93827863 132.58015891 39.93827863 132.58015891 40.04443359 136.26953125 C39.38443359 136.26953125 38.72443359 136.26953125 38.04443359 136.26953125 C38.04443359 137.58953125 38.04443359 138.90953125 38.04443359 140.26953125 C37.38443359 140.26953125 36.72443359 140.26953125 36.04443359 140.26953125 C36.04443359 142.24953125 36.04443359 144.22953125 36.04443359 146.26953125 C35.38443359 146.26953125 34.72443359 146.26953125 34.04443359 146.26953125 C34.04443359 147.58953125 34.04443359 148.90953125 34.04443359 150.26953125 C33.38443359 150.26953125 32.72443359 150.26953125 32.04443359 150.26953125 C32.04443359 151.58953125 32.04443359 152.90953125 32.04443359 154.26953125 C31.38443359 154.26953125 30.72443359 154.26953125 30.04443359 154.26953125 C30.04443359 154.92953125 30.04443359 155.58953125 30.04443359 156.26953125 C29.38443359 156.26953125 28.72443359 156.26953125 28.04443359 156.26953125 C28.04443359 157.58953125 28.04443359 158.90953125 28.04443359 160.26953125 C27.38443359 160.26953125 26.72443359 160.26953125 26.04443359 160.26953125 C26.04443359 161.58953125 26.04443359 162.90953125 26.04443359 164.26953125 C25.38443359 164.26953125 24.72443359 164.26953125 24.04443359 164.26953125 C24.04443359 164.92953125 24.04443359 165.58953125 24.04443359 166.26953125 C23.38443359 166.26953125 22.72443359 166.26953125 22.04443359 166.26953125 C22.04443359 166.92953125 22.04443359 167.58953125 22.04443359 168.26953125 C21.38443359 168.26953125 20.72443359 168.26953125 20.04443359 168.26953125 C20.04443359 169.58953125 20.04443359 170.90953125 20.04443359 172.26953125 C19.38443359 172.26953125 18.72443359 172.26953125 18.04443359 172.26953125 C18.04443359 172.92953125 18.04443359 173.58953125 18.04443359 174.26953125 C17.38443359 174.26953125 16.72443359 174.26953125 16.04443359 174.26953125 C16.04443359 174.92953125 16.04443359 175.58953125 16.04443359 176.26953125 C15.38443359 176.26953125 14.72443359 176.26953125 14.04443359 176.26953125 C14.04443359 176.92953125 14.04443359 177.58953125 14.04443359 178.26953125 C13.38443359 178.26953125 12.72443359 178.26953125 12.04443359 178.26953125 C12.04443359 178.92953125 12.04443359 179.58953125 12.04443359 180.26953125 C11.38443359 180.26953125 10.72443359 180.26953125 10.04443359 180.26953125 C10.04443359 180.92953125 10.04443359 181.58953125 10.04443359 182.26953125 C9.38443359 182.26953125 8.72443359 182.26953125 8.04443359 182.26953125 C8.04443359 182.92953125 8.04443359 183.58953125 8.04443359 184.26953125 C7.38443359 184.26953125 6.72443359 184.26953125 6.04443359 184.26953125 C6.04443359 184.92953125 6.04443359 185.58953125 6.04443359 186.26953125 C5.38443359 186.26953125 4.72443359 186.26953125 4.04443359 186.26953125 C4.04443359 186.92953125 4.04443359 187.58953125 4.04443359 188.26953125 C2.72443359 188.26953125 1.40443359 188.26953125 0.04443359 188.26953125 C0.04443359 188.92953125 0.04443359 189.58953125 0.04443359 190.26953125 C-0.61556641 190.26953125 -1.27556641 190.26953125 -1.95556641 190.26953125 C-1.95556641 190.92953125 -1.95556641 191.58953125 -1.95556641 192.26953125 C-2.61556641 192.26953125 -3.27556641 192.26953125 -3.95556641 192.26953125 C-3.95556641 192.92953125 -3.95556641 193.58953125 -3.95556641 194.26953125 C-5.27556641 194.26953125 -6.59556641 194.26953125 -7.95556641 194.26953125 C-7.95556641 194.92953125 -7.95556641 195.58953125 -7.95556641 196.26953125 C-8.61556641 196.26953125 -9.27556641 196.26953125 -9.95556641 196.26953125 C-9.95556641 196.92953125 -9.95556641 197.58953125 -9.95556641 198.26953125 C-11.27556641 198.26953125 -12.59556641 198.26953125 -13.95556641 198.26953125 C-13.95556641 198.92953125 -13.95556641 199.58953125 -13.95556641 200.26953125 C-15.27556641 200.26953125 -16.59556641 200.26953125 -17.95556641 200.26953125 C-17.95556641 200.92953125 -17.95556641 201.58953125 -17.95556641 202.26953125 C-19.27556641 202.26953125 -20.59556641 202.26953125 -21.95556641 202.26953125 C-21.95556641 202.92953125 -21.95556641 203.58953125 -21.95556641 204.26953125 C-23.27556641 204.26953125 -24.59556641 204.26953125 -25.95556641 204.26953125 C-25.95556641 204.92953125 -25.95556641 205.58953125 -25.95556641 206.26953125 C-27.93556641 206.26953125 -29.91556641 206.26953125 -31.95556641 206.26953125 C-31.95556641 206.92953125 -31.95556641 207.58953125 -31.95556641 208.26953125 C-33.93556641 208.26953125 -35.91556641 208.26953125 -37.95556641 208.26953125 C-37.95556641 208.92953125 -37.95556641 209.58953125 -37.95556641 210.26953125 C-40.59556641 210.26953125 -43.23556641 210.26953125 -45.95556641 210.26953125 C-45.95556641 210.92953125 -45.95556641 211.58953125 -45.95556641 212.26953125 C-49.91556641 212.26953125 -53.87556641 212.26953125 -57.95556641 212.26953125 C-57.95556641 212.92953125 -57.95556641 213.58953125 -57.95556641 214.26953125 C-95.37182938 215.54508567 -129.84158459 206.47903988 -157.62255859 180.57763672 C-179.48820415 159.49552233 -194.24715498 130.03482764 -194.95556641 99.26953125 C-194.99423828 98.44453125 -195.03291016 97.61953125 -195.07275391 96.76953125 C-195.93939098 64.41508045 -183.00292767 34.31233036 -161.49462891 10.55078125 C-154.63723515 3.39174261 -147.19690821 -2.27553314 -138.95556641 -7.73046875 C-138.10220703 -8.30667969 -137.24884766 -8.88289063 -136.36962891 -9.4765625 C-94.93833174 -35.97332232 -37.61288778 -30.16509973 0 0 Z " fill="#5D80F1" transform="translate(218.95556640625,49.73046875)"/>
<path d="M0 0 C1.99949578 1.53811968 2.88631461 2.44854616 3.40063477 4.94335938 C3.30748638 15.23363917 1.5106394 25.35447508 -0.0625 35.5 C-0.37891505 37.57213322 -0.69499082 39.64431828 -1.01074219 41.71655273 C-1.83050441 47.07501926 -2.66309261 52.43141315 -3.49957275 57.78729248 C-3.99346745 60.95806147 -4.48252757 64.12954041 -4.97021484 67.30126953 C-5.73724334 72.28303546 -6.51600006 77.26282404 -7.30465698 82.24121094 C-7.59980662 84.11101109 -7.89193768 85.98129042 -8.18093872 87.85205078 C-8.58475408 90.45642708 -9.00151536 93.05840607 -9.421875 95.66015625 C-9.53730148 96.42058731 -9.65272797 97.18101837 -9.77165222 97.9644928 C-10.51321783 102.44567826 -11.62848785 106.11367901 -14 110 C-17.72998493 112.48665662 -19.28226319 112.20327935 -23.5625 111.5859375 C-27.89517263 110.54442966 -31.28453499 108.40673405 -35 106 C-36.09054688 105.29617187 -37.18109375 104.59234375 -38.3046875 103.8671875 C-45.34359886 99.26402012 -52.24751629 94.46501426 -59.125 89.625 C-60.19041016 88.87561157 -60.19041016 88.87561157 -61.27734375 88.11108398 C-62.60402817 87.17140204 -63.92505512 86.22366215 -65.23925781 85.26660156 C-66.77275841 84.16346775 -68.34823462 83.11915338 -69.9296875 82.0859375 C-72 80 -72 80 -73.18359375 76.65625 C-72.96099707 72.2232608 -71.94873914 71.07802761 -68.85742188 68.10546875 C-68.26509766 67.57566406 -67.67277344 67.04585938 -67.0625 66.5 C-66.50498047 65.97019531 -65.94746094 65.44039063 -65.37304688 64.89453125 C-62.39092151 62.08582481 -59.30918088 59.40112701 -56.20703125 56.7265625 C-51.14454843 52.31483939 -46.38571495 47.60775187 -41.625 42.875 C-40.72394531 41.99457031 -39.82289063 41.11414063 -38.89453125 40.20703125 C-38.03472656 39.35238281 -37.17492187 38.49773437 -36.2890625 37.6171875 C-35.51256348 36.85003418 -34.73606445 36.08288086 -33.93603516 35.29248047 C-31.94420194 32.9339289 -30.96434998 30.91363648 -30 28 C-35.84429601 30.25555721 -40.7150975 33.28454053 -45.875 36.8125 C-47.71333844 38.0523847 -49.55189648 39.29194385 -51.390625 40.53125 C-52.93073242 41.57345703 -52.93073242 41.57345703 -54.50195312 42.63671875 C-60.77887242 46.88139783 -67.07609364 51.09584478 -73.37554932 55.30697632 C-75.60774459 56.80095121 -77.83688889 58.29940236 -80.06591797 59.7980957 C-81.45266005 60.72628256 -82.83953554 61.65427015 -84.2265625 62.58203125 C-84.86632019 63.01370605 -85.50607788 63.44538086 -86.16522217 63.89013672 C-92.5397957 68.14057365 -97.47313228 68.65425489 -105 68 C-109.28000905 67.02512404 -113.36525771 65.65210164 -117.5 64.1875 C-118.56992188 63.83107422 -119.63984375 63.47464844 -120.7421875 63.10742188 C-129.57389162 60.07638992 -129.57389162 60.07638992 -132 57 C-132 55.0625 -132 55.0625 -131 53 C-126.77655642 48.99544966 -122.0514705 47.13424374 -116.73046875 45.0234375 C-115.82640289 44.65686539 -114.92233704 44.29029327 -113.99087524 43.91261292 C-111.05943184 42.72578363 -108.12350111 41.55050303 -105.1875 40.375 C-103.15480815 39.55376534 -101.12250126 38.73157724 -99.09057617 37.90844727 C-95.12636874 36.30298245 -91.16089572 34.70071773 -87.19433594 33.10107422 C-81.38289427 30.75432084 -75.59175324 28.3625285 -69.8125 25.9375 C-68.03391613 25.19386219 -66.2552672 24.45038 -64.4765625 23.70703125 C-63.50750977 23.30178223 -62.53845703 22.8965332 -61.54003906 22.47900391 C-54.18721126 19.40704316 -46.83128924 16.34255759 -39.47299194 13.28372192 C-37.63994364 12.52120195 -35.80727098 11.75777823 -33.9750061 10.99337769 C-5.36919703 -0.93960948 -5.36919703 -0.93960948 0 0 Z " fill="#FDFDFE" transform="translate(199,92)"/>
<path d="M0 0 C2 2 2 2 2 6 C1.34 6 0.68 6 0 6 C0 7.32 0 8.64 0 10 C-0.66 10 -1.32 10 -2 10 C-2 11.98 -2 13.96 -2 16 C-2.66 16 -3.32 16 -4 16 C-4 17.32 -4 18.64 -4 20 C-4.66 20 -5.32 20 -6 20 C-6 21.32 -6 22.64 -6 24 C-6.66 24 -7.32 24 -8 24 C-8 24.66 -8 25.32 -8 26 C-8.66 26 -9.32 26 -10 26 C-10 27.32 -10 28.64 -10 30 C-10.66 30 -11.32 30 -12 30 C-12 31.32 -12 32.64 -12 34 C-12.66 34 -13.32 34 -14 34 C-14 34.66 -14 35.32 -14 36 C-14.66 36 -15.32 36 -16 36 C-16 36.66 -16 37.32 -16 38 C-16.66 38 -17.32 38 -18 38 C-18 39.32 -18 40.64 -18 42 C-18.66 42 -19.32 42 -20 42 C-20 42.66 -20 43.32 -20 44 C-20.66 44 -21.32 44 -22 44 C-22 44.66 -22 45.32 -22 46 C-22.66 46 -23.32 46 -24 46 C-24 46.66 -24 47.32 -24 48 C-24.66 48 -25.32 48 -26 48 C-26 48.66 -26 49.32 -26 50 C-26.66 50 -27.32 50 -28 50 C-28 50.66 -28 51.32 -28 52 C-28.66 52 -29.32 52 -30 52 C-30 52.66 -30 53.32 -30 54 C-30.66 54 -31.32 54 -32 54 C-32 54.66 -32 55.32 -32 56 C-32.66 56 -33.32 56 -34 56 C-34 56.66 -34 57.32 -34 58 C-35.32 58 -36.64 58 -38 58 C-38 58.66 -38 59.32 -38 60 C-38.66 60 -39.32 60 -40 60 C-40 60.66 -40 61.32 -40 62 C-40.66 62 -41.32 62 -42 62 C-42 62.66 -42 63.32 -42 64 C-43.32 64 -44.64 64 -46 64 C-46 64.66 -46 65.32 -46 66 C-46.66 66 -47.32 66 -48 66 C-48 66.66 -48 67.32 -48 68 C-49.32 68 -50.64 68 -52 68 C-52 68.66 -52 69.32 -52 70 C-53.32 70 -54.64 70 -56 70 C-56 70.66 -56 71.32 -56 72 C-57.32 72 -58.64 72 -60 72 C-60 72.66 -60 73.32 -60 74 C-61.32 74 -62.64 74 -64 74 C-64 74.66 -64 75.32 -64 76 C-65.98 76 -67.96 76 -70 76 C-70 76.66 -70 77.32 -70 78 C-71.98 78 -73.96 78 -76 78 C-76 78.66 -76 79.32 -76 80 C-78.64 80 -81.28 80 -84 80 C-84 80.66 -84 81.32 -84 82 C-87.63 82 -91.26 82 -95 82 C-95 81.67 -95 81.34 -95 81 C-94.44763672 80.88519287 -93.89527344 80.77038574 -93.32617188 80.65209961 C-68.37727905 75.36312036 -42.71539084 65.17849869 -26.2265625 44.63671875 C-25.49179688 43.76660156 -24.75703125 42.89648438 -24 42 C-23.34 42 -22.68 42 -22 42 C-21.76539063 41.47921875 -21.53078125 40.9584375 -21.2890625 40.421875 C-19.92343949 37.85615905 -18.33009908 35.51230029 -16.67382812 33.12695312 C-12.51722649 27.12019497 -8.77064611 21.03513571 -5.5 14.5 C-5.17435059 13.85450195 -4.84870117 13.20900391 -4.51318359 12.54394531 C-2.50559748 8.42215671 -1.13854269 4.41754563 0 0 Z " fill="#BEBCD6" transform="translate(257,180)"/>
<path d="M0 0 C2 2 2 2 2 6 C1.34 6 0.68 6 0 6 C0 7.32 0 8.64 0 10 C-0.66 10 -1.32 10 -2 10 C-2 11.98 -2 13.96 -2 16 C-2.66 16 -3.32 16 -4 16 C-4 17.32 -4 18.64 -4 20 C-4.66 20 -5.32 20 -6 20 C-6 21.32 -6 22.64 -6 24 C-6.66 24 -7.32 24 -8 24 C-8 24.66 -8 25.32 -8 26 C-8.66 26 -9.32 26 -10 26 C-10 27.32 -10 28.64 -10 30 C-10.66 30 -11.32 30 -12 30 C-12 31.32 -12 32.64 -12 34 C-12.66 34 -13.32 34 -14 34 C-14 34.66 -14 35.32 -14 36 C-14.66 36 -15.32 36 -16 36 C-16 36.66 -16 37.32 -16 38 C-16.99 38 -17.98 38 -19 38 C-17.36417222 34.52905579 -15.36732101 31.3626551 -13.3125 28.125 C-7.77818969 19.24921931 -2.65302324 10.17421534 0 0 Z " fill="#C7C2DE" transform="translate(257,180)"/>
<path d="M0 0 C2 2 2 2 2 6 C1.34 6 0.68 6 0 6 C0 7.32 0 8.64 0 10 C-0.66 10 -1.32 10 -2 10 C-2 11.98 -2 13.96 -2 16 C-2.66 16 -3.32 16 -4 16 C-4 17.32 -4 18.64 -4 20 C-4.66 20 -5.32 20 -6 20 C-5.55647603 14.78859335 -4.2114968 10.82012022 -1.9375 6.11328125 C-1.03714987 4.08374199 -0.46922753 2.16528955 0 0 Z " fill="#D5D2E5" transform="translate(257,180)"/>
</svg>
