<?xml version="1.0" encoding="UTF-8"?>
<svg version="1.1" xmlns="http://www.w3.org/2000/svg" width="289" height="289">
<path d="M0 0 C20.6541796 19.40885407 35.80235506 48.15520664 37.51928711 76.6862793 C37.61625169 80.43918633 37.64089118 84.1833862 37.625 87.9375 C37.62326279 88.92804382 37.62326279 88.92804382 37.62149048 89.93859863 C37.5759813 103.06352656 35.98155495 114.61990065 31.94140625 127.12109375 C31.04710559 130.14838481 30.65314875 133.11603153 30.3125 136.25 C29.6525 136.25 28.9925 136.25 28.3125 136.25 C28.3125 138.23 28.3125 140.21 28.3125 142.25 C27.6525 142.25 26.9925 142.25 26.3125 142.25 C26.3125 143.57 26.3125 144.89 26.3125 146.25 C25.6525 146.25 24.9925 146.25 24.3125 146.25 C24.3125 147.57 24.3125 148.89 24.3125 150.25 C23.6525 150.25 22.9925 150.25 22.3125 150.25 C22.3125 150.91 22.3125 151.57 22.3125 152.25 C21.6525 152.25 20.9925 152.25 20.3125 152.25 C20.3125 153.57 20.3125 154.89 20.3125 156.25 C19.6525 156.25 18.9925 156.25 18.3125 156.25 C18.3125 156.91 18.3125 157.57 18.3125 158.25 C17.6525 158.25 16.9925 158.25 16.3125 158.25 C16.3125 159.57 16.3125 160.89 16.3125 162.25 C15.6525 162.25 14.9925 162.25 14.3125 162.25 C14.3125 162.91 14.3125 163.57 14.3125 164.25 C13.6525 164.25 12.9925 164.25 12.3125 164.25 C12.3125 165.57 12.3125 166.89 12.3125 168.25 C11.6525 168.25 10.9925 168.25 10.3125 168.25 C10.3125 168.91 10.3125 169.57 10.3125 170.25 C9.6525 170.25 8.9925 170.25 8.3125 170.25 C8.3125 170.91 8.3125 171.57 8.3125 172.25 C7.6525 172.25 6.9925 172.25 6.3125 172.25 C6.3125 172.91 6.3125 173.57 6.3125 174.25 C5.6525 174.25 4.9925 174.25 4.3125 174.25 C4.3125 174.91 4.3125 175.57 4.3125 176.25 C3.6525 176.25 2.9925 176.25 2.3125 176.25 C2.3125 176.91 2.3125 177.57 2.3125 178.25 C1.6525 178.25 0.9925 178.25 0.3125 178.25 C0.3125 178.91 0.3125 179.57 0.3125 180.25 C-1.0075 180.25 -2.3275 180.25 -3.6875 180.25 C-3.6875 180.91 -3.6875 181.57 -3.6875 182.25 C-4.3475 182.25 -5.0075 182.25 -5.6875 182.25 C-5.6875 182.91 -5.6875 183.57 -5.6875 184.25 C-6.3475 184.25 -7.0075 184.25 -7.6875 184.25 C-7.6875 184.91 -7.6875 185.57 -7.6875 186.25 C-8.3475 186.25 -9.0075 186.25 -9.6875 186.25 C-9.6875 186.91 -9.6875 187.57 -9.6875 188.25 C-11.0075 188.25 -12.3275 188.25 -13.6875 188.25 C-13.6875 188.91 -13.6875 189.57 -13.6875 190.25 C-15.0075 190.25 -16.3275 190.25 -17.6875 190.25 C-17.6875 190.91 -17.6875 191.57 -17.6875 192.25 C-18.3475 192.25 -19.0075 192.25 -19.6875 192.25 C-19.6875 192.91 -19.6875 193.57 -19.6875 194.25 C-21.0075 194.25 -22.3275 194.25 -23.6875 194.25 C-23.6875 194.91 -23.6875 195.57 -23.6875 196.25 C-25.0075 196.25 -26.3275 196.25 -27.6875 196.25 C-27.6875 196.91 -27.6875 197.57 -27.6875 198.25 C-29.0075 198.25 -30.3275 198.25 -31.6875 198.25 C-31.6875 198.91 -31.6875 199.57 -31.6875 200.25 C-33.6675 200.25 -35.6475 200.25 -37.6875 200.25 C-37.6875 200.91 -37.6875 201.57 -37.6875 202.25 C-39.6675 202.25 -41.6475 202.25 -43.6875 202.25 C-43.6875 202.91 -43.6875 203.57 -43.6875 204.25 C-45.6675 204.25 -47.6475 204.25 -49.6875 204.25 C-49.6875 204.91 -49.6875 205.57 -49.6875 206.25 C-52.3275 206.25 -54.9675 206.25 -57.6875 206.25 C-57.6875 206.91 -57.6875 207.57 -57.6875 208.25 C-100.10287138 209.28150222 -100.10287138 209.28150222 -116.6875 203.25 C-118.07850217 202.79663151 -119.47043344 202.34610367 -120.86328125 201.8984375 C-134.82484492 197.2241398 -147.64549407 189.99626034 -158.6875 180.25 C-159.94820312 179.16912109 -159.94820312 179.16912109 -161.234375 178.06640625 C-185.73563442 156.64636581 -199.47712441 127.29829426 -201.85595703 94.95996094 C-203.65042499 60.37703445 -190.35468268 29.52030111 -167.640625 3.9453125 C-122.56097795 -43.6764199 -47.85396843 -41.19075763 0 0 Z " fill="#130127" transform="translate(226.6875,55.75)"/>
<path d="M0 0 C7.26 0 14.52 0 22 0 C22.53625 1.959375 23.0725 3.91875 23.625 5.9375 C26.12022865 14.03156326 29.64036681 21.33291554 37 26 C42.43546709 28.71773354 46.83140772 29.62920172 53 31 C53 38.26 53 45.52 53 53 C43.65239822 53 37.97619077 52.14125912 29.703125 47.9140625 C28.63223633 47.36959473 27.56134766 46.82512695 26.45800781 46.26416016 C25.64686523 45.8469873 24.83572266 45.42981445 24 45 C23.98018066 46.31081543 23.96036133 47.62163086 23.93994141 48.97216797 C23.86339388 53.87388069 23.77475524 58.77531542 23.68261719 63.67675781 C23.64452928 65.79095946 23.60964266 67.90522145 23.578125 70.01953125 C23.53203287 73.0731349 23.47411472 76.12633019 23.4140625 79.1796875 C23.40251129 80.11239471 23.39096008 81.04510193 23.37905884 82.006073 C23.09673788 94.79637147 20.14420166 106.85204263 11.6328125 116.75390625 C6.6146957 121.4984497 1.55315564 124.8276169 -5 127 C-6.2375 127.4125 -7.475 127.825 -8.75 128.25 C-20.51029299 130.8555739 -30.47741847 128.85141401 -40.625 122.8125 C-50.46242547 116.23131732 -55.29083697 108.12748909 -59 97 C-59.8714485 87.4393085 -60.44534851 77.25257787 -55 69 C-54.56429687 68.2471875 -54.12859375 67.494375 -53.6796875 66.71875 C-47.58025426 56.71967911 -38.96909517 50.31414154 -27.5625 47.37109375 C-24.57257155 46.93810106 -21.70760208 46.90431207 -18.6875 46.9375 C-16.810625 46.958125 -14.93375 46.97875 -13 47 C-13 54.59 -13 62.18 -13 70 C-14.85625 70.0825 -16.7125 70.165 -18.625 70.25 C-24.78069028 70.79251089 -28.36402078 71.89305916 -32.46484375 76.7265625 C-35.50840742 80.9588865 -36.74646977 84.54115287 -36.421875 89.76171875 C-35.43716951 94.98612843 -33.26910244 98.79280499 -29.4375 102.4375 C-24.29458824 105.73423831 -18.92666572 105.69630226 -13 105 C-7.14647823 102.9260701 -4.51704877 99.73819092 -1.86496735 94.29133606 C-0.4080837 90.43198803 -0.42938379 86.73226509 -0.45410156 82.64648438 C-0.44376389 81.74798767 -0.43342621 80.84949097 -0.42277527 79.92376709 C-0.39348717 76.98024208 -0.39185106 74.03740888 -0.390625 71.09375 C-0.37563391 69.04250793 -0.35890482 66.99127789 -0.34051514 64.94006348 C-0.29693387 59.56102933 -0.2768629 54.182158 -0.26177979 48.80297852 C-0.24217549 43.30605479 -0.20020918 37.80930603 -0.16015625 32.3125 C-0.08495378 21.54169113 -0.03667049 10.77100905 0 0 Z " fill="#FDFBFC" transform="translate(141,77)"/>
<path d="M0 0 C1.98 0 3.96 0 6 0 C6 7.26 6 14.52 6 22 C-5.28908555 22 -5.28908555 22 -11.3125 19.6875 C-12.46363281 19.25824219 -13.61476563 18.82898438 -14.80078125 18.38671875 C-17.72091829 17.12096948 -20.29466136 15.66237187 -23 14 C-23.00364563 14.59975647 -23.00729126 15.19951294 -23.01104736 15.81744385 C-23.05316393 22.1130519 -23.12270954 28.40795056 -23.20751953 34.703125 C-23.23558166 37.04615145 -23.25686885 39.38926997 -23.27099609 41.73242188 C-23.29263073 45.11896406 -23.33938594 48.50441621 -23.390625 51.890625 C-23.39185364 52.92237854 -23.39308228 53.95413208 -23.39434814 55.01715088 C-23.63865451 67.40839949 -27.62536484 77.82984682 -36 87 C-45.6538299 95.61320147 -56.33041825 98.93958138 -69.12109375 98.38671875 C-77.73265804 97.528164 -84.31005114 94.35195909 -91 89 C-88.03996283 89 -86.78993993 89.41391127 -84.125 90.5 C-73.6104294 94.05589847 -63.04036354 92.20627422 -53 88 C-42.74326489 82.66403736 -36.73841265 74.87661362 -33 64 C-31.23702774 56.97209732 -30.67337207 50.18644777 -30.5859375 42.9609375 C-30.56657135 41.95406891 -30.5472052 40.94720032 -30.5272522 39.90982056 C-30.46804392 36.73162998 -30.42130848 33.553402 -30.375 30.375 C-30.33676603 28.20441233 -30.29771126 26.03383896 -30.2578125 23.86328125 C-30.16239169 18.57564885 -30.07717709 13.2879285 -30 8 C-29.17365303 8.41613052 -29.17365303 8.41613052 -28.33061218 8.84066772 C-27.24789787 9.3843248 -27.24789787 9.3843248 -26.14331055 9.93896484 C-25.06946358 10.47884537 -25.06946358 10.47884537 -23.97392273 11.02963257 C-16.33363258 14.78554896 -8.37717653 15.85364953 0 17 C0 11.39 0 5.78 0 0 Z " fill="#F81954" transform="translate(194,113)"/>
<path d="M0 0 C7.26 0 14.52 0 22 0 C22 1.65 22 3.3 22 5 C17.05 5 12.1 5 7 5 C7.00888245 6.13481812 7.01776489 7.26963623 7.0269165 8.43884277 C7.10811255 19.14964799 7.16801837 29.8603905 7.20724869 40.57143402 C7.22809567 46.0777014 7.25636082 51.5837197 7.30175781 57.08984375 C7.34531818 62.40666645 7.36915883 67.72325001 7.37950897 73.04023743 C7.38688202 75.06557477 7.40127989 77.09089949 7.42292023 79.11613464 C7.45208949 81.95986902 7.45595034 84.80262372 7.45410156 87.64648438 C7.46848267 88.47799011 7.48286377 89.30949585 7.49768066 90.16619873 C7.45357671 96.46337145 5.94363375 101.81175993 1.58795547 106.5293808 C-3.56791258 111.07742246 -8.06405459 112.42165421 -14.78515625 112.25390625 C-18.04071274 111.88069431 -20.28916892 110.80722072 -23 109 C-24.03226901 107.69148998 -25.03819897 106.36114531 -26 105 C-25.154375 105.05800781 -24.30875 105.11601562 -23.4375 105.17578125 C-17.00433059 105.43164594 -12.17161711 105.39515753 -6.68359375 101.875 C-1.55043414 96.15825612 -0.40894781 90.11027696 -0.45410156 82.64648438 C-0.44376389 81.74798767 -0.43342621 80.84949097 -0.42277527 79.92376709 C-0.39348717 76.98024208 -0.39185106 74.03740888 -0.390625 71.09375 C-0.37563391 69.04250793 -0.35890482 66.99127789 -0.34051514 64.94006348 C-0.29693387 59.56102933 -0.2768629 54.182158 -0.26177979 48.80297852 C-0.24217549 43.30605479 -0.20020918 37.80930603 -0.16015625 32.3125 C-0.08495378 21.54169113 -0.03667049 10.77100905 0 0 Z " fill="#07C9D0" transform="translate(141,77)"/>
<path d="M0 0 C1.60294922 0.01353516 1.60294922 0.01353516 3.23828125 0.02734375 C4.04652344 0.03894531 4.85476562 0.05054687 5.6875 0.0625 C5.6875 2.0425 5.6875 4.0225 5.6875 6.0625 C5.03265625 6.13726562 4.3778125 6.21203125 3.703125 6.2890625 C-6.795172 7.80152902 -17.28578483 12.0304418 -24.2265625 20.359375 C-25.07347656 21.57367188 -25.07347656 21.57367188 -25.9375 22.8125 C-26.50726563 23.61171875 -27.07703125 24.4109375 -27.6640625 25.234375 C-31.60953546 32.00338548 -32.86870413 38.00612107 -32.8125 45.8125 C-32.80968018 46.68849854 -32.80686035 47.56449707 -32.80395508 48.46704102 C-32.56675428 58.02473404 -29.22043741 65.01693692 -24.3125 73.0625 C-31.17537193 70.14915831 -35.05815045 63.14374114 -38.25 56.6875 C-41.74978772 47.65990188 -42.4739754 35.0282363 -38.6875 25.9375 C-37.93980855 24.6198899 -37.14686589 23.32700483 -36.3125 22.0625 C-35.87679687 21.3096875 -35.44109375 20.556875 -34.9921875 19.78125 C-28.89275426 9.78217911 -20.28159517 3.37664154 -8.875 0.43359375 C-5.88507155 0.00060106 -3.02010208 -0.03318793 0 0 Z " fill="#05C4CC" transform="translate(122.3125,123.9375)"/>
<path d="M0 0 C2.31 0.33 4.62 0.66 7 1 C7 8.26 7 15.52 7 23 C4.215625 23.12375 4.215625 23.12375 1.375 23.25 C-5.34122464 23.81890373 -8.82883009 25.53542875 -13.3125 30.625 C-15.94389909 34.32845057 -16.13607141 36.34679258 -16.125 40.875 C-16.12757812 41.92429688 -16.13015625 42.97359375 -16.1328125 44.0546875 C-16.01998664 46.55676685 -15.72508762 48.61756923 -15 51 C-19.21779303 49.49364535 -20.7747674 46.75987578 -23 43 C-24.58935702 38.23192894 -25.05509789 33.49545974 -23.05859375 28.7734375 C-20.23833124 24.0523711 -16.9879072 20.4939536 -12 18 C-9.95944995 17.92934383 -7.91665743 17.91578024 -5.875 17.9375 C-2.966875 17.9684375 -2.966875 17.9684375 0 18 C0 12.06 0 6.12 0 0 Z " fill="#F61B55" transform="translate(128,129)"/>
<path d="M0 0 C0.33 0 0.66 0 1 0 C1 1.98 1 3.96 1 6 C0.34 6 -0.32 6 -1 6 C-1 7.98 -1 9.96 -1 12 C-1.66 12 -2.32 12 -3 12 C-3 13.32 -3 14.64 -3 16 C-3.66 16 -4.32 16 -5 16 C-5 17.32 -5 18.64 -5 20 C-5.66 20 -6.32 20 -7 20 C-7 20.66 -7 21.32 -7 22 C-7.66 22 -8.32 22 -9 22 C-9 23.32 -9 24.64 -9 26 C-9.66 26 -10.32 26 -11 26 C-11 26.66 -11 27.32 -11 28 C-11.66 28 -12.32 28 -13 28 C-13 29.32 -13 30.64 -13 32 C-13.66 32 -14.32 32 -15 32 C-15 32.66 -15 33.32 -15 34 C-15.66 34 -16.32 34 -17 34 C-17 35.32 -17 36.64 -17 38 C-17.66 38 -18.32 38 -19 38 C-19 38.66 -19 39.32 -19 40 C-19.66 40 -20.32 40 -21 40 C-21 40.66 -21 41.32 -21 42 C-21.66 42 -22.32 42 -23 42 C-23 42.66 -23 43.32 -23 44 C-23.66 44 -24.32 44 -25 44 C-25 44.66 -25 45.32 -25 46 C-25.66 46 -26.32 46 -27 46 C-27 46.66 -27 47.32 -27 48 C-27.66 48 -28.32 48 -29 48 C-29 48.66 -29 49.32 -29 50 C-30.32 50 -31.64 50 -33 50 C-33 50.66 -33 51.32 -33 52 C-33.66 52 -34.32 52 -35 52 C-35 52.66 -35 53.32 -35 54 C-35.66 54 -36.32 54 -37 54 C-37 54.66 -37 55.32 -37 56 C-37.66 56 -38.32 56 -39 56 C-39 56.66 -39 57.32 -39 58 C-40.32 58 -41.64 58 -43 58 C-43 58.66 -43 59.32 -43 60 C-44.32 60 -45.64 60 -47 60 C-47 60.66 -47 61.32 -47 62 C-47.66 62 -48.32 62 -49 62 C-49 62.66 -49 63.32 -49 64 C-50.32 64 -51.64 64 -53 64 C-53 64.66 -53 65.32 -53 66 C-54.32 66 -55.64 66 -57 66 C-57 66.66 -57 67.32 -57 68 C-58.32 68 -59.64 68 -61 68 C-61 68.66 -61 69.32 -61 70 C-62.98 70 -64.96 70 -67 70 C-67 70.66 -67 71.32 -67 72 C-68.98 72 -70.96 72 -73 72 C-73 72.66 -73 73.32 -73 74 C-74.98 74 -76.96 74 -79 74 C-79 74.66 -79 75.32 -79 76 C-81.64 76 -84.28 76 -87 76 C-87 76.66 -87 77.32 -87 78 C-92.48094366 78.049467 -97.96175713 78.0857514 -103.44287109 78.10986328 C-105.30715194 78.11991593 -107.17141703 78.13356005 -109.03564453 78.15087891 C-111.71651091 78.17515953 -114.39716866 78.18649047 -117.078125 78.1953125 C-117.91055725 78.20563507 -118.7429895 78.21595764 -119.60064697 78.22659302 C-126.74669236 78.22797609 -126.74669236 78.22797609 -130 76 C-129.12899658 76.01047363 -128.25799316 76.02094727 -127.3605957 76.03173828 C-124.06352989 76.06625338 -120.76666184 76.09110586 -117.46948242 76.10986328 C-116.05473765 76.11979131 -114.64001266 76.13333825 -113.2253418 76.15087891 C-78.94500282 76.56462812 -50.22963167 64.29978263 -25.4375 40.8125 C-14.35642873 29.43408334 -5.31110487 14.91067951 0 0 Z " fill="#A7A6BF" transform="translate(256,186)"/>
<path d="M0 0 C0.33 0 0.66 0 1 0 C1 1.98 1 3.96 1 6 C0.34 6 -0.32 6 -1 6 C-1 7.98 -1 9.96 -1 12 C-1.66 12 -2.32 12 -3 12 C-3 13.32 -3 14.64 -3 16 C-3.66 16 -4.32 16 -5 16 C-5 17.32 -5 18.64 -5 20 C-5.66 20 -6.32 20 -7 20 C-7 20.66 -7 21.32 -7 22 C-7.66 22 -8.32 22 -9 22 C-9 23.32 -9 24.64 -9 26 C-9.66 26 -10.32 26 -11 26 C-11 26.66 -11 27.32 -11 28 C-11.66 28 -12.32 28 -13 28 C-13 29.32 -13 30.64 -13 32 C-13.66 32 -14.32 32 -15 32 C-15 32.66 -15 33.32 -15 34 C-15.66 34 -16.32 34 -17 34 C-17 35.32 -17 36.64 -17 38 C-17.66 38 -18.32 38 -19 38 C-19 38.66 -19 39.32 -19 40 C-19.66 40 -20.32 40 -21 40 C-21 40.66 -21 41.32 -21 42 C-21.66 42 -22.32 42 -23 42 C-23 42.66 -23 43.32 -23 44 C-23.66 44 -24.32 44 -25 44 C-25 44.66 -25 45.32 -25 46 C-25.66 46 -26.32 46 -27 46 C-27 46.66 -27 47.32 -27 48 C-27.66 48 -28.32 48 -29 48 C-29 48.66 -29 49.32 -29 50 C-29.99 49.67 -30.98 49.34 -32 49 C-31.30132812 48.33613281 -30.60265625 47.67226562 -29.8828125 46.98828125 C-28.97273437 46.10527344 -28.06265625 45.22226563 -27.125 44.3125 C-25.76761719 43.00732422 -25.76761719 43.00732422 -24.3828125 41.67578125 C-22.05351276 39.06009219 -21.19459594 37.2233494 -20 34 C-18.84230902 32.48087029 -17.62865569 31.00345485 -16.375 29.5625 C-9.15716328 20.7567392 -3.76309203 10.74461803 0 0 Z " fill="#CDCCD9" transform="translate(256,186)"/>
<path d="M0 0 C1.98 0 3.96 0 6 0 C6.09796875 0.61746094 6.1959375 1.23492187 6.296875 1.87109375 C7.39058626 8.06564802 9.20029639 13.37341119 12 19 C8.45034523 17.56323497 6.92912058 15.88698102 4.875 12.6875 C4.37742188 11.92824219 3.87984375 11.16898438 3.3671875 10.38671875 C1.35322623 6.87091778 0 4.0847322 0 0 Z " fill="#F01C55" transform="translate(164,82)"/>
<path d="M0 0 C0.66 0 1.32 0 2 0 C2 1.32 2 2.64 2 4 C1.34 4 0.68 4 0 4 C0 4.66 0 5.32 0 6 C-0.66 6 -1.32 6 -2 6 C-2 7.32 -2 8.64 -2 10 C-2.66 10 -3.32 10 -4 10 C-4 10.66 -4 11.32 -4 12 C-4.66 12 -5.32 12 -6 12 C-6 12.66 -6 13.32 -6 14 C-6.66 14 -7.32 14 -8 14 C-8 14.66 -8 15.32 -8 16 C-8.66 16 -9.32 16 -10 16 C-10 16.66 -10 17.32 -10 18 C-10.66 18 -11.32 18 -12 18 C-12 18.66 -12 19.32 -12 20 C-12.66 20 -13.32 20 -14 20 C-14 20.66 -14 21.32 -14 22 C-14.99 21.67 -15.98 21.34 -17 21 C-16.30132812 20.33613281 -15.60265625 19.67226562 -14.8828125 18.98828125 C-13.97273437 18.10527344 -13.06265625 17.22226563 -12.125 16.3125 C-10.76761719 15.00732422 -10.76761719 15.00732422 -9.3828125 13.67578125 C-7.06794541 11.07629936 -6.13650603 9.22895171 -5 6 C-3.4886746 3.76691984 -1.85121771 1.99005904 0 0 Z " fill="#B6B7CE" transform="translate(241,214)"/>
<path d="M0 0 C1.12148437 0.30744141 1.12148437 0.30744141 2.265625 0.62109375 C3.25046875 0.89050781 4.2353125 1.15992187 5.25 1.4375 C6.71179688 1.83775391 6.71179688 1.83775391 8.203125 2.24609375 C10.46372653 2.85544584 12.72622009 3.44238255 15 4 C15 5.32 15 6.64 15 8 C8.55510814 7.73146284 4.73633646 5.33036476 0 1 C0 0.67 0 0.34 0 0 Z " fill="#0DC4CC" transform="translate(179,104)"/>
<path d="M0 0 C0.33 1.32 0.66 2.64 1 4 C0.34 4 -0.32 4 -1 4 C-1 4.66 -1 5.32 -1 6 C-1.66 6 -2.32 6 -3 6 C-3 7.32 -3 8.64 -3 10 C-3.66 10 -4.32 10 -5 10 C-5 10.66 -5 11.32 -5 12 C-5.99 11.67 -6.98 11.34 -8 11 C-7.04801289 9.35048774 -6.08820855 7.70548492 -5.125 6.0625 C-4.59132812 5.14597656 -4.05765625 4.22945312 -3.5078125 3.28515625 C-2 1 -2 1 0 0 Z " fill="#C3C2D3" transform="translate(250,202)"/>
<path d="M0 0 C0 4.15560231 -2.2820452 5.84099329 -5 8.6875 C-5.47695313 9.19861328 -5.95390625 9.70972656 -6.4453125 10.23632812 C-7.62359915 11.49709484 -8.81095253 12.74937686 -10 14 C-10.66 13.67 -11.32 13.34 -12 13 C-8.04 8.71 -4.08 4.42 0 0 Z " fill="#62497E" transform="translate(62,57)"/>
</svg>
