<?xml version="1.0" encoding="UTF-8"?>
<svg version="1.1" xmlns="http://www.w3.org/2000/svg" width="289" height="289">
<path d="M0 0 C6.17126567 5.324975 11.2866101 11.27952752 16.22265625 17.75 C17.13144531 18.91789062 17.13144531 18.91789062 18.05859375 20.109375 C29.00394639 34.8682668 36.06093926 52.76239387 39.22265625 70.75 C39.40699219 71.79027344 39.59132813 72.83054687 39.78125 73.90234375 C41.63423849 90.05450008 40.47478346 105.84185313 36.70996094 121.59033203 C35.58195615 126.58949555 34.92625103 131.67671133 34.22265625 136.75 C33.56265625 136.75 32.90265625 136.75 32.22265625 136.75 C32.22265625 138.07 32.22265625 139.39 32.22265625 140.75 C31.56265625 140.75 30.90265625 140.75 30.22265625 140.75 C30.22265625 142.07 30.22265625 143.39 30.22265625 144.75 C29.56265625 144.75 28.90265625 144.75 28.22265625 144.75 C28.22265625 146.07 28.22265625 147.39 28.22265625 148.75 C27.56265625 148.75 26.90265625 148.75 26.22265625 148.75 C26.22265625 150.07 26.22265625 151.39 26.22265625 152.75 C25.56265625 152.75 24.90265625 152.75 24.22265625 152.75 C24.22265625 154.07 24.22265625 155.39 24.22265625 156.75 C23.56265625 156.75 22.90265625 156.75 22.22265625 156.75 C22.22265625 157.41 22.22265625 158.07 22.22265625 158.75 C21.56265625 158.75 20.90265625 158.75 20.22265625 158.75 C20.22265625 160.07 20.22265625 161.39 20.22265625 162.75 C19.56265625 162.75 18.90265625 162.75 18.22265625 162.75 C18.22265625 163.41 18.22265625 164.07 18.22265625 164.75 C17.56265625 164.75 16.90265625 164.75 16.22265625 164.75 C16.22265625 166.07 16.22265625 167.39 16.22265625 168.75 C15.56265625 168.75 14.90265625 168.75 14.22265625 168.75 C14.22265625 169.41 14.22265625 170.07 14.22265625 170.75 C13.56265625 170.75 12.90265625 170.75 12.22265625 170.75 C12.22265625 171.41 12.22265625 172.07 12.22265625 172.75 C11.56265625 172.75 10.90265625 172.75 10.22265625 172.75 C10.22265625 173.41 10.22265625 174.07 10.22265625 174.75 C9.56265625 174.75 8.90265625 174.75 8.22265625 174.75 C8.22265625 175.41 8.22265625 176.07 8.22265625 176.75 C7.56265625 176.75 6.90265625 176.75 6.22265625 176.75 C6.22265625 177.41 6.22265625 178.07 6.22265625 178.75 C5.56265625 178.75 4.90265625 178.75 4.22265625 178.75 C4.22265625 179.41 4.22265625 180.07 4.22265625 180.75 C3.56265625 180.75 2.90265625 180.75 2.22265625 180.75 C2.22265625 181.41 2.22265625 182.07 2.22265625 182.75 C1.56265625 182.75 0.90265625 182.75 0.22265625 182.75 C0.22265625 183.41 0.22265625 184.07 0.22265625 184.75 C-1.09734375 184.75 -2.41734375 184.75 -3.77734375 184.75 C-3.77734375 185.41 -3.77734375 186.07 -3.77734375 186.75 C-4.43734375 186.75 -5.09734375 186.75 -5.77734375 186.75 C-5.77734375 187.41 -5.77734375 188.07 -5.77734375 188.75 C-6.43734375 188.75 -7.09734375 188.75 -7.77734375 188.75 C-7.77734375 189.41 -7.77734375 190.07 -7.77734375 190.75 C-9.09734375 190.75 -10.41734375 190.75 -11.77734375 190.75 C-11.77734375 191.41 -11.77734375 192.07 -11.77734375 192.75 C-12.43734375 192.75 -13.09734375 192.75 -13.77734375 192.75 C-13.77734375 193.41 -13.77734375 194.07 -13.77734375 194.75 C-15.09734375 194.75 -16.41734375 194.75 -17.77734375 194.75 C-17.77734375 195.41 -17.77734375 196.07 -17.77734375 196.75 C-19.09734375 196.75 -20.41734375 196.75 -21.77734375 196.75 C-21.77734375 197.41 -21.77734375 198.07 -21.77734375 198.75 C-23.09734375 198.75 -24.41734375 198.75 -25.77734375 198.75 C-25.77734375 199.41 -25.77734375 200.07 -25.77734375 200.75 C-27.09734375 200.75 -28.41734375 200.75 -29.77734375 200.75 C-29.77734375 201.41 -29.77734375 202.07 -29.77734375 202.75 C-31.75734375 202.75 -33.73734375 202.75 -35.77734375 202.75 C-35.77734375 203.41 -35.77734375 204.07 -35.77734375 204.75 C-37.75734375 204.75 -39.73734375 204.75 -41.77734375 204.75 C-41.77734375 205.41 -41.77734375 206.07 -41.77734375 206.75 C-44.41734375 206.75 -47.05734375 206.75 -49.77734375 206.75 C-49.77734375 207.41 -49.77734375 208.07 -49.77734375 208.75 C-53.07734375 208.75 -56.37734375 208.75 -59.77734375 208.75 C-59.77734375 209.41 -59.77734375 210.07 -59.77734375 210.75 C-83.69036827 211.58756148 -106.89026896 210.39302836 -128.77734375 199.75 C-129.40286133 199.44690918 -130.02837891 199.14381836 -130.67285156 198.83154297 C-159.3301852 184.76040586 -181.71537033 160.90530209 -192.53222656 130.63769531 C-202.79491544 99.90517775 -201.31240327 66.71419519 -186.96484375 37.5625 C-181.28353311 26.43012976 -174.4357021 16.77093617 -165.77734375 7.75 C-164.63845703 6.51636719 -164.63845703 6.51636719 -163.4765625 5.2578125 C-119.54838708 -40.89912468 -47.49336808 -38.47563996 0 0 Z " fill="#02D668" transform="translate(223.77734375,53.25)"/>
<path d="M0 0 C10.99760769 9.34950682 17.51077469 20.78637328 20.8515625 34.74609375 C21.04363281 35.37 21.23570312 35.99390625 21.43359375 36.63671875 C24.48329422 52.02773045 20.33957001 68.50436284 11.9765625 81.49609375 C2.03214428 95.47885439 -10.89134868 104.45574961 -27.796875 108.234375 C-41.17183616 110.2764728 -53.94746666 108.84657917 -66.1484375 102.74609375 C-73.33981302 102.52578903 -80.14381559 104.76135064 -86.90649414 106.93017578 C-91.66807749 108.43056041 -96.17641905 109.25447844 -101.1484375 109.74609375 C-100.7426344 108.00200383 -100.33626526 106.2580442 -99.92749023 104.51464844 C-99.57078839 102.98512671 -99.21883766 101.45449017 -98.87133789 99.92285156 C-97.98471758 96.0661917 -97.03530532 92.27777014 -95.81640625 88.51171875 C-92.76917023 78.79733645 -93.66598819 73.01403119 -98.1484375 63.74609375 C-102.96836796 50.11732486 -100.56003425 34.65260834 -94.828125 21.78125 C-86.67588874 5.89998101 -73.92032308 -5.4362998 -56.98828125 -11.359375 C-36.69454524 -16.71571424 -16.87860426 -12.0830703 0 0 Z " fill="#02D768" transform="translate(184.1484375,95.25390625)"/>
<path d="M0 0 C10.99760769 9.34950682 17.51077469 20.78637328 20.8515625 34.74609375 C21.04363281 35.37 21.23570312 35.99390625 21.43359375 36.63671875 C24.48329422 52.02773045 20.33957001 68.50436284 11.9765625 81.49609375 C2.03214428 95.47885439 -10.89134868 104.45574961 -27.796875 108.234375 C-41.17183616 110.2764728 -53.94746666 108.84657917 -66.1484375 102.74609375 C-73.33981302 102.52578903 -80.14381559 104.76135064 -86.90649414 106.93017578 C-91.66807749 108.43056041 -96.17641905 109.25447844 -101.1484375 109.74609375 C-100.7426344 108.00200383 -100.33626526 106.2580442 -99.92749023 104.51464844 C-99.57078839 102.98512671 -99.21883766 101.45449017 -98.87133789 99.92285156 C-97.98471758 96.0661917 -97.03530532 92.27777014 -95.81640625 88.51171875 C-92.76917023 78.79733645 -93.66598819 73.01403119 -98.1484375 63.74609375 C-102.96836796 50.11732486 -100.56003425 34.65260834 -94.828125 21.78125 C-86.67588874 5.89998101 -73.92032308 -5.4362998 -56.98828125 -11.359375 C-36.69454524 -16.71571424 -16.87860426 -12.0830703 0 0 Z M-76.1484375 14.74609375 C-81.53219919 21.58441562 -85.35682113 28.20260081 -87.1484375 36.74609375 C-87.33019531 37.55046875 -87.51195313 38.35484375 -87.69921875 39.18359375 C-89.52118934 49.57674775 -88.15242457 60.72087337 -82.8984375 69.93359375 C-80.49063704 74.39078162 -81.14573902 77.92208765 -82.1484375 82.74609375 C-82.32246094 83.66777344 -82.49648437 84.58945313 -82.67578125 85.5390625 C-83.14119406 87.94765873 -83.6327387 90.34784398 -84.1484375 92.74609375 C-79.90651056 92.38788659 -75.99468277 92.04476855 -71.9609375 90.62109375 C-67.07709267 89.10167536 -63.59522399 90.42809376 -59.2109375 92.68359375 C-58.30021484 93.19212891 -58.30021484 93.19212891 -57.37109375 93.7109375 C-46.12298975 98.94950966 -32.92470723 97.80000674 -21.40625 94.07421875 C-6.98476934 88.19495805 1.61736012 78.2217677 7.98828125 64.25390625 C11.91524817 52.84615619 11.28702883 38.53568264 6.39453125 27.640625 C-0.46116845 14.77967949 -10.5034596 4.64023427 -24.578125 -0.06640625 C-43.4725192 -4.52672226 -62.97643518 0.15406144 -76.1484375 14.74609375 Z " fill="#F8FDFB" transform="translate(184.1484375,95.25390625)"/>
<path d="M0 0 C3.79320959 1.13130812 4.11953049 1.30357008 5.9375 4.5 C6.47375 5.675625 7.01 6.85125 7.5625 8.0625 C7.8925 8.7225 8.2225 9.3825 8.5625 10.0625 C8.92127931 15.62357928 8.91735716 17.64018829 5.5625 22.0625 C6.54224452 27.94096711 12.06853877 33.14007155 16.625 36.65234375 C20.1673611 38.9669547 23.26741222 40.65983552 27.5625 41.0625 C27.85125 40.27875 28.14 39.495 28.4375 38.6875 C29.5625 36.0625 29.5625 36.0625 31.5625 34.0625 C37.48360441 33.05157973 41.78132875 35.90692698 46.5625 39.0625 C47.2225 39.7225 47.8825 40.3825 48.5625 41.0625 C48.4817055 45.34460855 48.0097509 47.50343638 45.3125 50.875 C40.74877204 54.50523815 36.92196479 55.58540678 31.15234375 55.44140625 C17.76927144 53.4834002 6.03861355 44.07464731 -2.4375 34.0625 C-8.23011228 25.43140258 -11.5482663 18.56974875 -10.4375 8.0625 C-7.9384582 3.15059026 -5.79182183 0.10530585 0 0 Z " fill="#F9FDFB" transform="translate(126.4375,114.9375)"/>
<path d="M0 0 C0.33 0 0.66 0 1 0 C1 2.64 1 5.28 1 8 C0.34 8 -0.32 8 -1 8 C-1 9.32 -1 10.64 -1 12 C-1.66 12 -2.32 12 -3 12 C-3 13.32 -3 14.64 -3 16 C-3.66 16 -4.32 16 -5 16 C-5 17.32 -5 18.64 -5 20 C-5.66 20 -6.32 20 -7 20 C-7 21.32 -7 22.64 -7 24 C-7.66 24 -8.32 24 -9 24 C-9 25.32 -9 26.64 -9 28 C-9.66 28 -10.32 28 -11 28 C-11 28.66 -11 29.32 -11 30 C-11.66 30 -12.32 30 -13 30 C-13 31.32 -13 32.64 -13 34 C-13.66 34 -14.32 34 -15 34 C-15 34.66 -15 35.32 -15 36 C-15.66 36 -16.32 36 -17 36 C-17 37.32 -17 38.64 -17 40 C-17.66 40 -18.32 40 -19 40 C-19 40.66 -19 41.32 -19 42 C-19.66 42 -20.32 42 -21 42 C-21 42.66 -21 43.32 -21 44 C-21.66 44 -22.32 44 -23 44 C-23 44.66 -23 45.32 -23 46 C-23.66 46 -24.32 46 -25 46 C-25 46.66 -25 47.32 -25 48 C-25.66 48 -26.32 48 -27 48 C-27 48.66 -27 49.32 -27 50 C-27.66 50 -28.32 50 -29 50 C-29 50.66 -29 51.32 -29 52 C-29.66 52 -30.32 52 -31 52 C-31 52.66 -31 53.32 -31 54 C-31.66 54 -32.32 54 -33 54 C-33 54.66 -33 55.32 -33 56 C-34.32 56 -35.64 56 -37 56 C-37 56.66 -37 57.32 -37 58 C-37.66 58 -38.32 58 -39 58 C-39 58.66 -39 59.32 -39 60 C-39.66 60 -40.32 60 -41 60 C-41 60.66 -41 61.32 -41 62 C-42.32 62 -43.64 62 -45 62 C-45 62.66 -45 63.32 -45 64 C-45.66 64 -46.32 64 -47 64 C-47 64.66 -47 65.32 -47 66 C-48.32 66 -49.64 66 -51 66 C-51 66.66 -51 67.32 -51 68 C-52.32 68 -53.64 68 -55 68 C-55 68.66 -55 69.32 -55 70 C-56.32 70 -57.64 70 -59 70 C-59 70.66 -59 71.32 -59 72 C-60.32 72 -61.64 72 -63 72 C-63 72.66 -63 73.32 -63 74 C-64.98 74 -66.96 74 -69 74 C-69 74.66 -69 75.32 -69 76 C-70.98 76 -72.96 76 -75 76 C-75 76.66 -75 77.32 -75 78 C-77.64 78 -80.28 78 -83 78 C-80.17491265 76.53502038 -77.33409797 75.31547079 -74.359375 74.1875 C-57.88362381 67.80292473 -43.65147781 60.55066922 -31 48 C-30.154375 47.195625 -29.30875 46.39125 -28.4375 45.5625 C-27.2309375 44.2940625 -27.2309375 44.2940625 -26 43 C-25.33484375 42.31808594 -24.6696875 41.63617188 -23.984375 40.93359375 C-13.99820794 30.35301198 -3.2709241 14.52353853 0 0 Z " fill="#AFB7CA" transform="translate(257,182)"/>
<path d="M0 0 C0.66 0.33 1.32 0.66 2 1 C0.71937515 2.7074998 -0.61767557 4.37373596 -2 6 C-2.66 6 -3.32 6 -4 6 C-4 6.66 -4 7.32 -4 8 C-5.32 8 -6.64 8 -8 8 C-8 8.66 -8 9.32 -8 10 C-9.32 10 -10.64 10 -12 10 C-12 10.66 -12 11.32 -12 12 C-13.32 12 -14.64 12 -16 12 C-16 12.66 -16 13.32 -16 14 C-17.32 14 -18.64 14 -20 14 C-20 14.66 -20 15.32 -20 16 C-21.98 16 -23.96 16 -26 16 C-26 16.66 -26 17.32 -26 18 C-27.98 18 -29.96 18 -32 18 C-32 18.66 -32 19.32 -32 20 C-34.64 20 -37.28 20 -40 20 C-37.15249158 18.52325751 -34.28560571 17.29426646 -31.2890625 16.15234375 C-21.64154943 12.39559327 -12.50813587 8.68586005 -4.03759766 2.65600586 C-2.72346626 1.72421606 -1.36560373 0.85457592 0 0 Z " fill="#A7B8C6" transform="translate(214,240)"/>
<path d="M0 0 C0.33 0 0.66 0 1 0 C1 2.64 1 5.28 1 8 C0.34 8 -0.32 8 -1 8 C-1 9.32 -1 10.64 -1 12 C-1.66 12 -2.32 12 -3 12 C-3 13.32 -3 14.64 -3 16 C-3.66 16 -4.32 16 -5 16 C-5 17.32 -5 18.64 -5 20 C-5.66 20 -6.32 20 -7 20 C-7 21.32 -7 22.64 -7 24 C-7.66 24 -8.32 24 -9 24 C-9 25.32 -9 26.64 -9 28 C-9.66 28 -10.32 28 -11 28 C-11 28.66 -11 29.32 -11 30 C-11.66 30 -12.32 30 -13 30 C-13 31.32 -13 32.64 -13 34 C-13.66 34 -14.32 34 -15 34 C-15 34.66 -15 35.32 -15 36 C-16.98 36.495 -16.98 36.495 -19 37 C-17.38273465 33.56943713 -15.41149291 30.44672593 -13.375 27.25 C-10.15950407 22.11192881 -7.27694522 16.85645198 -4.5625 11.4375 C-4.2207373 10.75913086 -3.87897461 10.08076172 -3.52685547 9.38183594 C-1.99778189 6.28015643 -0.75876194 3.36905045 0 0 Z " fill="#B9C5D1" transform="translate(257,182)"/>
<path d="M0 0 C0.66 0.33 1.32 0.66 2 1 C0.71937515 2.7074998 -0.61767557 4.37373596 -2 6 C-2.66 6 -3.32 6 -4 6 C-4 6.66 -4 7.32 -4 8 C-5.32 8 -6.64 8 -8 8 C-8 8.66 -8 9.32 -8 10 C-9.32 10 -10.64 10 -12 10 C-10.69522778 6.08568335 -9.01326694 5.42187412 -5.5625 3.25 C-4.57378906 2.61578125 -3.58507812 1.9815625 -2.56640625 1.328125 C-1.29603516 0.67070312 -1.29603516 0.67070312 0 0 Z " fill="#A3B0C2" transform="translate(214,240)"/>
<path d="M0 0 C0.33 0 0.66 0 1 0 C1 2.64 1 5.28 1 8 C0.34 8 -0.32 8 -1 8 C-1 9.32 -1 10.64 -1 12 C-1.66 12 -2.32 12 -3 12 C-3 13.32 -3 14.64 -3 16 C-3.66 16 -4.32 16 -5 16 C-5 17.32 -5 18.64 -5 20 C-5.66 20 -6.32 20 -7 20 C-6.38082372 16.12311214 -5.19146301 12.97285438 -3.5 9.4375 C-2.0044284 6.30288626 -0.70561439 3.40779675 0 0 Z " fill="#CBD4DD" transform="translate(257,182)"/>
<path d="M0 0 C0 0.99 0 1.98 0 3 C-1.32 3 -2.64 3 -4 3 C-4 3.66 -4 4.32 -4 5 C-4.99 4.67 -5.98 4.34 -7 4 C-3.17391304 0 -3.17391304 0 0 0 Z " fill="#AEB2CA" transform="translate(202,249)"/>
</svg>
