<?xml version="1.0" encoding="UTF-8"?>
<svg version="1.1" xmlns="http://www.w3.org/2000/svg" width="289" height="289">
<path d="M0 0 C10.16799886 8.8356628 19.19635673 18.12316143 26.12109375 29.75390625 C26.50104492 30.39166992 26.88099609 31.02943359 27.27246094 31.68652344 C44.43665929 61.07649869 48.48703719 94.16386079 40.02734375 127.109375 C39.258503 130.20130784 38.92412369 132.60238529 39.12109375 135.75390625 C38.46109375 135.75390625 37.80109375 135.75390625 37.12109375 135.75390625 C37.12109375 137.73390625 37.12109375 139.71390625 37.12109375 141.75390625 C36.46109375 141.75390625 35.80109375 141.75390625 35.12109375 141.75390625 C35.12109375 143.07390625 35.12109375 144.39390625 35.12109375 145.75390625 C34.46109375 145.75390625 33.80109375 145.75390625 33.12109375 145.75390625 C33.12109375 147.07390625 33.12109375 148.39390625 33.12109375 149.75390625 C32.46109375 149.75390625 31.80109375 149.75390625 31.12109375 149.75390625 C31.12109375 151.07390625 31.12109375 152.39390625 31.12109375 153.75390625 C30.46109375 153.75390625 29.80109375 153.75390625 29.12109375 153.75390625 C29.12109375 155.07390625 29.12109375 156.39390625 29.12109375 157.75390625 C28.46109375 157.75390625 27.80109375 157.75390625 27.12109375 157.75390625 C27.12109375 158.41390625 27.12109375 159.07390625 27.12109375 159.75390625 C26.46109375 159.75390625 25.80109375 159.75390625 25.12109375 159.75390625 C25.12109375 161.07390625 25.12109375 162.39390625 25.12109375 163.75390625 C24.46109375 163.75390625 23.80109375 163.75390625 23.12109375 163.75390625 C23.12109375 164.41390625 23.12109375 165.07390625 23.12109375 165.75390625 C22.46109375 165.75390625 21.80109375 165.75390625 21.12109375 165.75390625 C21.12109375 167.07390625 21.12109375 168.39390625 21.12109375 169.75390625 C20.46109375 169.75390625 19.80109375 169.75390625 19.12109375 169.75390625 C19.12109375 170.41390625 19.12109375 171.07390625 19.12109375 171.75390625 C18.46109375 171.75390625 17.80109375 171.75390625 17.12109375 171.75390625 C17.12109375 172.41390625 17.12109375 173.07390625 17.12109375 173.75390625 C16.46109375 173.75390625 15.80109375 173.75390625 15.12109375 173.75390625 C15.12109375 174.41390625 15.12109375 175.07390625 15.12109375 175.75390625 C14.46109375 175.75390625 13.80109375 175.75390625 13.12109375 175.75390625 C13.12109375 176.41390625 13.12109375 177.07390625 13.12109375 177.75390625 C12.46109375 177.75390625 11.80109375 177.75390625 11.12109375 177.75390625 C11.12109375 178.41390625 11.12109375 179.07390625 11.12109375 179.75390625 C10.46109375 179.75390625 9.80109375 179.75390625 9.12109375 179.75390625 C9.12109375 180.41390625 9.12109375 181.07390625 9.12109375 181.75390625 C8.46109375 181.75390625 7.80109375 181.75390625 7.12109375 181.75390625 C7.12109375 182.41390625 7.12109375 183.07390625 7.12109375 183.75390625 C6.46109375 183.75390625 5.80109375 183.75390625 5.12109375 183.75390625 C5.12109375 184.41390625 5.12109375 185.07390625 5.12109375 185.75390625 C4.46109375 185.75390625 3.80109375 185.75390625 3.12109375 185.75390625 C3.12109375 186.41390625 3.12109375 187.07390625 3.12109375 187.75390625 C2.46109375 187.75390625 1.80109375 187.75390625 1.12109375 187.75390625 C1.12109375 188.41390625 1.12109375 189.07390625 1.12109375 189.75390625 C-0.19890625 189.75390625 -1.51890625 189.75390625 -2.87890625 189.75390625 C-2.87890625 190.41390625 -2.87890625 191.07390625 -2.87890625 191.75390625 C-3.53890625 191.75390625 -4.19890625 191.75390625 -4.87890625 191.75390625 C-4.87890625 192.41390625 -4.87890625 193.07390625 -4.87890625 193.75390625 C-5.53890625 193.75390625 -6.19890625 193.75390625 -6.87890625 193.75390625 C-6.87890625 194.41390625 -6.87890625 195.07390625 -6.87890625 195.75390625 C-8.19890625 195.75390625 -9.51890625 195.75390625 -10.87890625 195.75390625 C-10.87890625 196.41390625 -10.87890625 197.07390625 -10.87890625 197.75390625 C-12.19890625 197.75390625 -13.51890625 197.75390625 -14.87890625 197.75390625 C-14.87890625 198.41390625 -14.87890625 199.07390625 -14.87890625 199.75390625 C-16.19890625 199.75390625 -17.51890625 199.75390625 -18.87890625 199.75390625 C-18.87890625 200.41390625 -18.87890625 201.07390625 -18.87890625 201.75390625 C-20.19890625 201.75390625 -21.51890625 201.75390625 -22.87890625 201.75390625 C-22.87890625 202.41390625 -22.87890625 203.07390625 -22.87890625 203.75390625 C-24.19890625 203.75390625 -25.51890625 203.75390625 -26.87890625 203.75390625 C-26.87890625 204.41390625 -26.87890625 205.07390625 -26.87890625 205.75390625 C-28.85890625 205.75390625 -30.83890625 205.75390625 -32.87890625 205.75390625 C-32.87890625 206.41390625 -32.87890625 207.07390625 -32.87890625 207.75390625 C-34.19890625 207.75390625 -35.51890625 207.75390625 -36.87890625 207.75390625 C-36.87890625 208.41390625 -36.87890625 209.07390625 -36.87890625 209.75390625 C-39.51890625 209.75390625 -42.15890625 209.75390625 -44.87890625 209.75390625 C-44.87890625 210.41390625 -44.87890625 211.07390625 -44.87890625 211.75390625 C-48.17890625 211.75390625 -51.47890625 211.75390625 -54.87890625 211.75390625 C-54.87890625 212.41390625 -54.87890625 213.07390625 -54.87890625 213.75390625 C-93.7961816 215.00669097 -128.47115238 207.85582354 -157.96484375 180.98046875 C-170.20847313 169.44335315 -179.05721994 156.06444424 -185.87890625 140.75390625 C-186.36101562 139.69945312 -186.843125 138.645 -187.33984375 137.55859375 C-198.98689893 109.95860239 -198.10755395 77.2312549 -187.3659668 49.53686523 C-182.44012302 37.53134908 -176.15823126 26.78123932 -167.87890625 16.75390625 C-167.08097656 15.779375 -166.28304687 14.80484375 -165.4609375 13.80078125 C-124.14626174 -33.95173354 -48.79454525 -39.71938142 0 0 Z " fill="#CD0101" transform="translate(219.87890625,50.24609375)"/>
<path d="M0 0 C0.73583817 -0.00832352 1.47167633 -0.01664703 2.22981262 -0.02522278 C4.6490314 -0.04920711 7.06797983 -0.05808132 9.48730469 -0.06469727 C11.18113276 -0.0736736 12.87496007 -0.08279562 14.56878662 -0.09205627 C18.11602702 -0.10851828 21.66317337 -0.11624107 25.21044922 -0.11914062 C29.7340421 -0.12451632 34.25673859 -0.16217415 38.78007889 -0.20788479 C42.27875923 -0.23777482 45.777227 -0.24486679 49.27602386 -0.24586678 C50.94245247 -0.25004674 52.60888303 -0.26239076 54.27518463 -0.28338432 C64.44369039 -0.40128453 73.37734864 -0.19116473 81.30328369 7.0327301 C87.69152056 13.59799695 88.87589816 21.39191011 88.87792969 30.17749023 C88.88934998 31.56013817 88.88934998 31.56013817 88.90100098 32.97071838 C88.91174918 34.90948799 88.91467671 36.84831525 88.91015625 38.78710938 C88.90918339 41.7326823 88.95087654 44.67565142 88.99511719 47.62084961 C89.00032496 49.51472445 89.00301237 51.40860824 89.00292969 53.30249023 C89.01932495 54.17151474 89.03572021 55.04053925 89.0526123 55.93589783 C88.9717846 63.18349279 86.6628904 68.86017475 81.65368652 74.16575623 C75.75773519 79.68357252 69.60633712 81.76034285 61.61303711 81.72631836 C60.86729935 81.7347879 60.12156158 81.74325745 59.35322571 81.75198364 C56.90685603 81.77523386 54.4611199 81.77637856 52.01464844 81.77514648 C50.29982761 81.78225633 48.58500915 81.78995652 46.87019348 81.79821777 C43.28180322 81.81163585 39.69363287 81.81324389 36.10522461 81.80737305 C31.52893313 81.80148557 26.95370571 81.83204092 22.37761974 81.87248993 C18.83688267 81.89846723 15.29639822 81.9012352 11.75557899 81.89759827 C10.06962731 81.89928078 8.38366286 81.90883878 6.6978054 81.92674255 C-10.99131142 82.09391457 -10.99131142 82.09391457 -18.59082031 76.30639648 C-25.58916168 69.05972778 -28.05709142 61.00077559 -28.05957031 51.12670898 C-28.06718384 50.2739035 -28.07479736 49.42109802 -28.0826416 48.54244995 C-28.0933837 46.74911405 -28.09631986 44.95571589 -28.09179688 43.16235352 C-28.09082516 40.44496453 -28.13249928 37.73040982 -28.17675781 35.01342773 C-28.25321377 24.13205037 -27.61470823 16.24769003 -20.34472656 7.65014648 C-19.25998047 6.73749023 -19.25998047 6.73749023 -18.15332031 5.80639648 C-17.43273437 5.17733398 -16.71214844 4.54827148 -15.96972656 3.90014648 C-10.94950502 0.53684535 -5.90807894 0.00575186 0 0 Z " fill="#FEFDFD" transform="translate(113.5908203125,102.693603515625)"/>
<path d="M0 0 C7.22885644 0.08986148 12.66252684 3.8577595 18.75 7.4375 C19.79027344 8.03626953 20.83054688 8.63503906 21.90234375 9.25195312 C25.66266388 11.42398798 29.38613513 13.59075675 33 16 C33 16.66 33 17.32 33 18 C29.13006018 20.00940651 25.25231029 22.00258177 21.36669922 23.98144531 C20.04740776 24.65613077 18.73030686 25.33511834 17.41552734 26.01855469 C15.51966983 27.00308024 13.61634025 27.97160427 11.7109375 28.9375 C10.56931152 29.52402344 9.42768555 30.11054688 8.25146484 30.71484375 C4.89195645 32.0427047 2.57342014 32.26504838 -1 32 C-1.02465504 27.60343827 -1.04283842 23.2069128 -1.05493164 18.81030273 C-1.05997121 17.31355082 -1.06680287 15.81680384 -1.07543945 14.32006836 C-1.08752159 12.17300193 -1.09323191 10.02600038 -1.09765625 7.87890625 C-1.10289307 6.5854126 -1.10812988 5.29191895 -1.11352539 3.95922852 C-1 1 -1 1 0 0 Z " fill="#CE0202" transform="translate(131,128)"/>
<path d="M0 0 C0.66 0 1.32 0 2 0 C2 1.65 2 3.3 2 5 C1.34 5 0.68 5 0 5 C0 6.98 0 8.96 0 11 C-0.66 11 -1.32 11 -2 11 C-2 12.32 -2 13.64 -2 15 C-2.66 15 -3.32 15 -4 15 C-4 16.32 -4 17.64 -4 19 C-4.66 19 -5.32 19 -6 19 C-6 20.32 -6 21.64 -6 23 C-6.66 23 -7.32 23 -8 23 C-8 24.32 -8 25.64 -8 27 C-8.66 27 -9.32 27 -10 27 C-10 27.66 -10 28.32 -10 29 C-10.66 29 -11.32 29 -12 29 C-12 30.32 -12 31.64 -12 33 C-12.66 33 -13.32 33 -14 33 C-14 33.66 -14 34.32 -14 35 C-14.66 35 -15.32 35 -16 35 C-16 36.32 -16 37.64 -16 39 C-16.66 39 -17.32 39 -18 39 C-18 39.66 -18 40.32 -18 41 C-18.66 41 -19.32 41 -20 41 C-20 41.66 -20 42.32 -20 43 C-20.66 43 -21.32 43 -22 43 C-22 43.66 -22 44.32 -22 45 C-22.66 45 -23.32 45 -24 45 C-24 45.66 -24 46.32 -24 47 C-24.66 47 -25.32 47 -26 47 C-26 47.66 -26 48.32 -26 49 C-26.66 49 -27.32 49 -28 49 C-28 49.66 -28 50.32 -28 51 C-28.66 51 -29.32 51 -30 51 C-30 51.66 -30 52.32 -30 53 C-30.66 53 -31.32 53 -32 53 C-32 53.66 -32 54.32 -32 55 C-32.66 55 -33.32 55 -34 55 C-34 55.66 -34 56.32 -34 57 C-34.66 57 -35.32 57 -36 57 C-36 57.66 -36 58.32 -36 59 C-37.32 59 -38.64 59 -40 59 C-40 59.66 -40 60.32 -40 61 C-40.66 61 -41.32 61 -42 61 C-42 61.66 -42 62.32 -42 63 C-42.66 63 -43.32 63 -44 63 C-44 63.66 -44 64.32 -44 65 C-45.32 65 -46.64 65 -48 65 C-48 65.66 -48 66.32 -48 67 C-49.32 67 -50.64 67 -52 67 C-52 67.66 -52 68.32 -52 69 C-53.32 69 -54.64 69 -56 69 C-56 69.66 -56 70.32 -56 71 C-57.32 71 -58.64 71 -60 71 C-60 71.66 -60 72.32 -60 73 C-61.32 73 -62.64 73 -64 73 C-64 73.66 -64 74.32 -64 75 C-65.98 75 -67.96 75 -70 75 C-70 75.66 -70 76.32 -70 77 C-71.32 77 -72.64 77 -74 77 C-74 77.66 -74 78.32 -74 79 C-76.64 79 -79.28 79 -82 79 C-82 79.66 -82 80.32 -82 81 C-85.3 81 -88.6 81 -92 81 C-92 81.66 -92 82.32 -92 83 C-96.32331963 83.02480062 -100.64660106 83.04290758 -104.9699707 83.05493164 C-106.43937909 83.05994669 -107.90878252 83.06676033 -109.37817383 83.07543945 C-111.49561795 83.08762928 -113.61299583 83.09325669 -115.73046875 83.09765625 C-117.63928833 83.10551147 -117.63928833 83.10551147 -119.58666992 83.11352539 C-122.5370919 83.01539606 -125.13946675 82.69063835 -128 82 C-128 81.67 -128 81.34 -128 81 C-127.32122803 81.01047363 -126.64245605 81.02094727 -125.94311523 81.03173828 C-87.63698336 81.54399971 -55.56723004 72.68151385 -27.4375 45.8125 C-14.71361732 32.76236392 -6.22826688 17.04578303 0 0 Z " fill="#BBAFC4" transform="translate(257,181)"/>
<path d="M0 0 C0.66 0 1.32 0 2 0 C2 1.65 2 3.3 2 5 C1.34 5 0.68 5 0 5 C0 6.98 0 8.96 0 11 C-0.66 11 -1.32 11 -2 11 C-2 12.32 -2 13.64 -2 15 C-2.66 15 -3.32 15 -4 15 C-4 16.32 -4 17.64 -4 19 C-4.66 19 -5.32 19 -6 19 C-6 20.32 -6 21.64 -6 23 C-6.66 23 -7.32 23 -8 23 C-8 24.32 -8 25.64 -8 27 C-8.66 27 -9.32 27 -10 27 C-10 27.66 -10 28.32 -10 29 C-10.66 29 -11.32 29 -12 29 C-11.38326492 24.18759746 -9.34717172 20.42077696 -7.125 16.1875 C-4.35518745 10.88630199 -2.00819713 5.63937118 0 0 Z " fill="#CCC4D3" transform="translate(257,181)"/>
<path d="M0 0 C0.33 0 0.66 0 1 0 C1 1.98 1 3.96 1 6 C0.34 6 -0.32 6 -1 6 C-1 6.66 -1 7.32 -1 8 C-1.66 8 -2.32 8 -3 8 C-3 9.32 -3 10.64 -3 12 C-3.66 12 -4.32 12 -5 12 C-5 12.66 -5 13.32 -5 14 C-5.66 14 -6.32 14 -7 14 C-7 14.66 -7 15.32 -7 16 C-7.66 16 -8.32 16 -9 16 C-9 16.66 -9 17.32 -9 18 C-9.66 17.67 -10.32 17.34 -11 17 C-7.76420349 11.04613442 -4.12599919 5.38220892 0 0 Z " fill="#BEAFC1" transform="translate(244,208)"/>
<path d="M0 0 C0.66 0.33 1.32 0.66 2 1 C-4.6 7.6 -11.2 14.2 -18 21 C-18 16.61305328 -15.24722277 14.63981539 -12.375 11.625 C-11.85292969 11.06039062 -11.33085938 10.49578125 -10.79296875 9.9140625 C-7.40617436 6.30148181 -3.86293875 3.09731125 0 0 Z " fill="#FE4141" transform="translate(69,50)"/>
<path d="M0 0 C0.66 0 1.32 0 2 0 C2 1.65 2 3.3 2 5 C1.34 5 0.68 5 0 5 C0 6.98 0 8.96 0 11 C-1.32 11.33 -2.64 11.66 -4 12 C-2.66666667 8 -1.33333333 4 0 0 Z " fill="#D3C1CC" transform="translate(257,181)"/>
<path d="M0 0 C0.66 0.33 1.32 0.66 2 1 C0.75 3 0.75 3 -1 5 C-2.32 5 -3.64 5 -5 5 C-5 5.66 -5 6.32 -5 7 C-6.98 7 -8.96 7 -11 7 C-7.53252172 4.22601737 -3.93597489 2.04087587 0 0 Z " fill="#AE9AB1" transform="translate(206,245)"/>
<path d="M0 0 C0 0.66 0 1.32 0 2 C-1.32 2 -2.64 2 -4 2 C-4 2.66 -4 3.32 -4 4 C-6.31 3.67 -8.62 3.34 -11 3 C-7.13828168 1.00255949 -4.44822596 0 0 0 Z " fill="#B8A7BD" transform="translate(187,256)"/>
<path d="M0 0 C0.33 0.99 0.66 1.98 1 3 C0.34 3 -0.32 3 -1 3 C-1 3.66 -1 4.32 -1 5 C-1.66 5 -2.32 5 -3 5 C-3 5.66 -3 6.32 -3 7 C-3.66 7 -4.32 7 -5 7 C-5 7.66 -5 8.32 -5 9 C-5.66 8.67 -6.32 8.34 -7 8 C-5.50902342 4.2047869 -3.24299151 2.38957269 0 0 Z " fill="#BDBCD2" transform="translate(240,217)"/>
</svg>
